<svg height="32" viewBox="0 0 32 32" width="32" xmlns="http://www.w3.org/2000/svg"><g fill="none" fill-rule="evenodd"><circle cx="16" cy="16" fill="#b3bfd0" r="16"/><g fill="#fff" fill-rule="nonzero" transform="translate(7 7)"><path d="m14.2391061 18h-12.71061448c-.84268156 0-1.52849162-.6850446-1.52849162-1.5267857v-12.69642859c0-.84174107.68581006-1.52678571 1.52849162-1.52678571h12.71061448c.8426816 0 1.5284917.68504464 1.5284917 1.52678571v12.69642859c0 .8417411-.6858101 1.5267857-1.5284917 1.5267857zm-12.71061448-14.30357143c-.04223464 0-.08044693.03816964-.08044693.08035714v12.69642859c0 .0421875.03821229.0803571.08044693.0803571h12.71061448c.0422347 0 .080447-.0381696.080447-.0803571v-12.69642859c0-.0421875-.0382123-.08035714-.080447-.08035714z"/><path d="m14.2391061 8.59821429h-12.71061448c-.84268156 0-1.52849162-.68504465-1.52849162-1.52678572v-3.29464286c0-.84174107.68581006-1.52678571 1.52849162-1.52678571h12.71061448c.8426816 0 1.5284917.68504464 1.5284917 1.52678571v3.29464286c0 .84174107-.6858101 1.52678572-1.5284917 1.52678572zm-12.71061448-4.90178572c-.04223464 0-.08044693.03816964-.08044693.08035714v3.29464286c0 .0421875.03821229.08035714.08044693.08035714h12.71061448c.0422347 0 .080447-.03816964.080447-.08035714v-3.29464286c0-.0421875-.0382123-.08035714-.080447-.08035714z"/><path d="m9.79441341 6.14732143h-7.01899442c-.40022346 0-.72402234-.3234375-.72402234-.72321429 0-.39977678.32379888-.72321428.72402234-.72321428h7.01899442c.40022349 0 .72402239.3234375.72402239.72321428 0 .39977679-.3237989.72321429-.72402239.72321429z"/><path d="m12.0670391 5.42410714c0 .39942022.3241559.72321429.7240224.72321429s.7240223-.32379407.7240223-.72321429-.3241558-.72321428-.7240223-.72321428-.7240224.32379406-.7240224.72321428z"/><path d="m16.4715084 15.75h-1.427933v-1.4464286h1.427933c.0422346 0 .0804469-.0381696.0804469-.0803571v-12.69642859c0-.0421875-.0382123-.08035714-.0804469-.08035714h-12.71061455c-.04223463 0-.08044692.03816964-.08044692.08035714v1.44642858h-1.4480447v-1.44642858c0-.84174107.68581006-1.52678571 1.52849162-1.52678571h12.71061455c.8426815 0 1.5284916.68504464 1.5284916 1.52678571v12.69642859c0 .8417411-.6858101 1.5267857-1.5284916 1.5267857z"/></g></g></svg>