<?xml version="1.0" encoding="UTF-8"?>
<svg width="32px" height="32px" viewBox="0 0 32 32" version="1.1" xmlns="http://www.w3.org/2000/svg" xmlns:xlink="http://www.w3.org/1999/xlink">
    <!-- Generator: Sketch 50 (54983) - http://www.bohemiancoding.com/sketch -->
    <title>头像/人头像/ 40px copy</title>
    <desc>Created with Sketch.</desc>
    <defs>
        <circle id="path-1" cx="16" cy="16" r="16"></circle>
    </defs>
    <g id="🔥企业开源软件管理" stroke="none" stroke-width="1" fill="none" fill-rule="evenodd">
        <g id="项目管理总览--高级查询" transform="translate(-274.000000, -542.000000)">
            <g id="Group-21-Copy-3" transform="translate(263.000000, 503.000000)">
                <g id="头像/人头像/-40px-copy" transform="translate(11.000000, 39.000000)">
                    <g id="State">
                        <mask id="mask-2" fill="white">
                            <use xlink:href="#path-1"></use>
                        </mask>
                        <use id="Avatar" fill="#B3BFD0" xlink:href="#path-1"></use>
                    </g>
                    <g id="项目" transform="translate(7.000000, 7.000000)" fill="#FFFFFF" fill-rule="nonzero">
                        <path d="M14.2391061,18 L1.52849162,18 C0.685810056,18 0,17.3149554 0,16.4732143 L0,3.77678571 C0,2.93504464 0.685810056,2.25 1.52849162,2.25 L14.2391061,2.25 C15.0817877,2.25 15.7675978,2.93504464 15.7675978,3.77678571 L15.7675978,16.4732143 C15.7675978,17.3149554 15.0817877,18 14.2391061,18 Z M1.52849162,3.69642857 C1.48625698,3.69642857 1.44804469,3.73459821 1.44804469,3.77678571 L1.44804469,16.4732143 C1.44804469,16.5154018 1.48625698,16.5535714 1.52849162,16.5535714 L14.2391061,16.5535714 C14.2813408,16.5535714 14.3195531,16.5154018 14.3195531,16.4732143 L14.3195531,3.77678571 C14.3195531,3.73459821 14.2813408,3.69642857 14.2391061,3.69642857 L1.52849162,3.69642857 Z" id="Shape"></path>
                        <path d="M14.2391061,8.59821429 L1.52849162,8.59821429 C0.685810056,8.59821429 0,7.91316964 0,7.07142857 L0,3.77678571 C0,2.93504464 0.685810056,2.25 1.52849162,2.25 L14.2391061,2.25 C15.0817877,2.25 15.7675978,2.93504464 15.7675978,3.77678571 L15.7675978,7.07142857 C15.7675978,7.91316964 15.0817877,8.59821429 14.2391061,8.59821429 Z M1.52849162,3.69642857 C1.48625698,3.69642857 1.44804469,3.73459821 1.44804469,3.77678571 L1.44804469,7.07142857 C1.44804469,7.11361607 1.48625698,7.15178571 1.52849162,7.15178571 L14.2391061,7.15178571 C14.2813408,7.15178571 14.3195531,7.11361607 14.3195531,7.07142857 L14.3195531,3.77678571 C14.3195531,3.73459821 14.2813408,3.69642857 14.2391061,3.69642857 L1.52849162,3.69642857 Z" id="Shape"></path>
                        <path d="M9.79441341,6.14732143 L2.77541899,6.14732143 C2.37519553,6.14732143 2.05139665,5.82388393 2.05139665,5.42410714 C2.05139665,5.02433036 2.37519553,4.70089286 2.77541899,4.70089286 L9.79441341,4.70089286 C10.1946369,4.70089286 10.5184358,5.02433036 10.5184358,5.42410714 C10.5184358,5.82388393 10.1946369,6.14732143 9.79441341,6.14732143 Z" id="Shape"></path>
                        <path d="M12.0670391,5.42410714 C12.0670391,5.82352736 12.391195,6.14732143 12.7910615,6.14732143 C13.190928,6.14732143 13.5150838,5.82352736 13.5150838,5.42410714 C13.5150838,5.02468692 13.190928,4.70089286 12.7910615,4.70089286 C12.391195,4.70089286 12.0670391,5.02468692 12.0670391,5.42410714 Z" id="Shape"></path>
                        <path d="M16.4715084,15.75 L15.0435754,15.75 L15.0435754,14.3035714 L16.4715084,14.3035714 C16.513743,14.3035714 16.5519553,14.2654018 16.5519553,14.2232143 L16.5519553,1.52678571 C16.5519553,1.48459821 16.513743,1.44642857 16.4715084,1.44642857 L3.76089385,1.44642857 C3.71865922,1.44642857 3.68044693,1.48459821 3.68044693,1.52678571 L3.68044693,2.97321429 L2.23240223,2.97321429 L2.23240223,1.52678571 C2.23240223,0.685044643 2.91821229,0 3.76089385,0 L16.4715084,0 C17.3141899,0 18,0.685044643 18,1.52678571 L18,14.2232143 C18,15.0649554 17.3141899,15.75 16.4715084,15.75 Z" id="Shape"></path>
                    </g>
                </g>
            </g>
        </g>
    </g>
</svg>