<svg height="22" viewBox="0 0 22 22" width="22" xmlns="http://www.w3.org/2000/svg"><g fill="#084ff7" fill-rule="evenodd"><path d="m11.1758565 2.43299776c-.6212608.34844721-1.38982607 1.11317267-1.9259565 1.69345342.7714348-.81211429 2.8207826-1.45372174 4.7046522.76379627 1.0904348 1.28275031 2.1316087 2.66585342 4.2971739 7.04792545 0 0 .8814348 2.1928944.8814348 3.3906236-.0028696 2.3327379-1.186087 3.9913466-2.5046522 4.734236 3.1842609-1.783585 5.3249565-5.125426 5.325913-8.9504472-.0023913-1.8778981-.5155652-3.63639499-1.4170869-5.15330182-.9383478-1.57730435-2.2932609-2.89118261-3.9164783-3.80132671-.6413478-.35077019-1.4543913-.56866584-2.3573478-.56866584-.9608261 0-2.0225652.24670062-3.0876522.84370683"/><path d="m10.9817783.21004398c-1.80400004 0-3.63143482.44647701-5.30630439 1.38542608-3.46786956 1.9448-5.37947826 5.50128447-5.31491304 9.13303354.13726087 1.170318.90678261 4.1757913 5.13843478 4.9535255-1.0693913-.4083802-2.31334782-1.7896249-1.37069565-4.24641.59926087-1.55732668 1.309-3.12626829 4.13504348-7.13805711 0 0 1.51417391-1.83794286 2.58165222-2.43727205 2.0885652-1.16985342 4.1661304-.99609441 5.489-.25181118-1.6246522-.91479006-3.4755218-1.39843478-5.3522174-1.39843478"/><path d="m14.8643 16.3681913c-1.6887391.2759702-3.4439565.4604149-8.43173913.0910609 0 0-2.39608696-.354487-3.46308696-.9538162-2.08378261-1.1693888-2.96952174-2.9985043-2.96952174-4.481031-.0023913 3.5718161 1.90395653 7.0479254 5.31826087 8.9629913 3.40665218 1.9104198 7.44843476 1.7794037 10.62934786 0 4.0250434-2.6351901 1.9293043-7.260246 1.9293043-7.260246.3768696 1.0365143-.0358695 3.1546087-3.0125652 3.641041z"/></g></svg>