<?xml version="1.0" encoding="UTF-8"?>
<svg width="762px" height="900px" viewBox="0 0 762 900" version="1.1" xmlns="http://www.w3.org/2000/svg" xmlns:xlink="http://www.w3.org/1999/xlink">
    <!-- Generator: Sketch 50 (54983) - http://www.bohemiancoding.com/sketch -->
    <title>Group 19</title>
    <desc>Created with Sketch.</desc>
    <defs>
        <path d="M43.822,3.741 C43.822,5.379 34.218,6.707 22.371,6.707 C10.525,6.707 0.92,5.379 0.92,3.741 C0.92,2.103 10.525,0.775 22.371,0.775" id="path-1"></path>
        <polygon id="path-3" points="0.877 68.998 195.168 0 355.168 2 217.457 68.998"></polygon>
        <path d="M0.455,16.736 C2.044,17.586 3.595,18.383 4.734,18.962 L7.418,11.519 L7.669,9.155 L4.168,0.105 L0.455,16.736 Z" id="path-5"></path>
        <polygon id="path-7" points="0.228 12.304 122.382 18.263 162.204 1.228 146.211 0.748"></polygon>
        <polygon id="path-9" points="0.024 12.231 122.178 18.19 162 1.154 146.007 0.675"></polygon>
        <path d="M43.619,3.034 C43.619,4.673 34.015,6 22.168,6 C10.322,6 0.718,4.673 0.718,3.034 C0.718,1.396 10.322,0.068 22.168,0.068" id="path-11"></path>
        <path d="M0.57,3.034 C0.57,1.396 10.174,0.068 22.021,0.068 C33.867,0.068 43.471,1.396 43.471,3.034 C43.471,4.673 33.867,6 22.021,6" id="path-13"></path>
        <path d="M2.007,4.268 C1.9,4.59 1.346,6.228 0.77,7.941 L4.312,14.79 L6.103,4.743 L5.822,3.876 L3.603,0.404 L3.168,0.32 C3.168,0.32 2.24,3.571 2.007,4.268" id="path-15"></path>
        <polygon id="path-17" points="0.252 0.296 3.167 29.774 2.196 55.689 12.238 55.689 12.778 53.76 5.894 52.842 9.565 29.896 12.877 1.36"></polygon>
    </defs>
    <g id="ðŸ”¥ä¼ä¸šå¼€æºè½¯ä»¶ç®¡ç†" stroke="none" stroke-width="1" fill="none" fill-rule="evenodd">
        <g id="ç™»å½•ç•Œé¢">
            <g id="Group-19" transform="translate(0.000000, -3.000000)">
                <rect id="Rectangle-13" fill="#8FAFFF" fill-rule="nonzero" x="0" y="0" width="762" height="903"></rect>
                <path d="M633.305721,378.688 C631.891721,378.688 630.602721,379.209 629.609721,380.064 C629.706721,379.621 629.762721,379.161 629.762721,378.688 C629.762721,375.171 626.911721,372.32 623.394721,372.32 C622.249721,372.32 621.178721,372.626 620.249721,373.155 C620.368721,372.372 620.431721,371.571 620.431721,370.755 C620.431721,362.054 613.377721,355 604.675721,355 C596.518721,355 589.809721,361.199 589.001721,369.143 C588.107721,368.456 586.991721,368.042 585.775721,368.042 C582.846721,368.042 580.472721,370.417 580.472721,373.345 C580.472721,373.758 580.524721,374.157 580.613721,374.542 C579.814721,373.802 578.747721,373.345 577.572721,373.345 C575.098721,373.345 573.092721,375.351 573.092721,377.825 C573.092721,378.703 573.348721,379.52 573.784721,380.21 C573.158721,380.027 572.495721,379.928 571.810721,379.928 C568.201721,379.928 565.352721,383.165 568.093721,383.165 L637.246721,383.165 C639.299721,383.165 637.141721,378.688 633.305721,378.688" id="Fill-3" fill="#FFFFFF"></path>
                <path d="M428.713,293.579 L400.46,293.579 C399.568,292.843 399,291.728 399,290.481 C399,288.264 400.797,286.466 403.014,286.466 C403.269,286.466 403.517,286.493 403.758,286.538 C403.685,286.075 403.637,285.605 403.637,285.121 C403.637,280.084 407.721,276 412.758,276 C417.286,276 421.032,279.302 421.747,283.626 C422.783,282.809 424.089,282.318 425.511,282.318 C428.874,282.318 431.6,285.044 431.6,288.407 C431.6,290.593 430.443,292.505 428.713,293.579" id="Fill-7" fill="#FFFFFF"></path>
                <path d="M213.673,347.453 L259.402,347.453 C260.846,346.261 261.766,344.458 261.766,342.439 C261.766,338.85 258.857,335.941 255.268,335.941 C254.857,335.941 254.455,335.983 254.065,336.057 C254.182,335.308 254.26,334.546 254.26,333.765 C254.26,325.611 247.65,319 239.496,319 C232.169,319 226.105,324.344 224.947,331.344 C223.27,330.021 221.157,329.226 218.856,329.226 C213.413,329.226 209,333.639 209,339.082 C209,342.621 210.872,345.715 213.673,347.453" id="Fill-46" fill="#FFFFFF"></path>
                <path d="M59.469,562.202 L152.821,562.202 C164.627,562.202 147.908,554.39 144.15,559.737 C144.15,553.437 139.043,549.941 132.743,549.941 C131.477,549.941 130.262,550.156 129.123,550.537 C129.41,549.542 129.572,548.494 129.572,547.406 C129.572,541.155 124.505,536.088 118.254,536.088 C115.726,536.088 113.399,536.928 111.515,538.329 C111.809,537.026 111.97,535.673 111.97,534.282 C111.97,524.185 103.785,516 93.688,516 C83.592,516 75.407,524.185 75.407,534.282 C75.407,535.241 75.482,536.182 75.624,537.101 C74.317,536.459 72.851,536.088 71.296,536.088 C65.865,536.088 61.463,540.49 61.463,545.922 C61.463,547.467 61.829,548.923 62.464,550.223 C61.862,550.041 61.224,549.941 60.563,549.941 C56.939,549.941 54,552.879 54,556.504 C54,558.945 56.344,562.202 59.469,562.202" id="Fill-1" fill="#FFFFFF"></path>
                <g id="Group-3" transform="translate(494.000000, 502.000000)">
                    <mask id="mask-2" fill="white">
                        <use xlink:href="#path-1"></use>
                    </mask>
                    <g id="Clip-2"></g>
                    <path d="M43.822,3.741 C43.822,5.379 34.218,6.707 22.371,6.707 C10.525,6.707 0.92,5.379 0.92,3.741 C0.92,2.103 10.525,0.775 22.371,0.775 C34.218,0.775 43.822,2.103 43.822,3.741" id="Fill-1" mask="url(#mask-2)"></path>
                </g>
                <g id="Group-6" transform="translate(249.000000, 492.000000)">
                    <mask id="mask-4" fill="white">
                        <use xlink:href="#path-3"></use>
                    </mask>
                    <g id="Clip-5"></g>
                    <polygon id="Fill-4" mask="url(#mask-4)" points="0.877 68.998 195.168 0 355.168 2 217.457 68.998"></polygon>
                </g>
                <polygon id="Fill-11" fill="#2688C4" points="478 429.62 517.652 429.62 517.652 379 478 379"></polygon>
                <polygon id="Fill-12" fill="#39D9EE" points="476 429.62 515.652 429.62 515.652 379 476 379"></polygon>
                <path d="M484.253,383.507 L484.886,383.238 C485.118,383.143 485.321,383.066 485.507,383 C485.983,383.376 485.906,383.429 486.031,383.871 L480.845,386.24 L480.845,386.253 L483.083,387.273 C484.199,387.786 485.178,388.24 486.025,388.61 C485.899,389.069 486.002,389.105 485.5,389.499 C485.22,389.404 484.969,389.297 484.748,389.195 C483.268,388.521 481.358,387.661 479,386.575 L479,386.223 C479,386.181 479.078,386.127 479.245,386.055 C479.18,386.079 479.12,386.097 479.061,386.121 L479.061,386.044 C479.061,385.972 479.072,385.895 479.162,385.841 L484.253,383.507 Z" id="Fill-13" fill="#FFFFFF"></path>
                <path d="M484.253,417.507 L484.886,417.238 C485.118,417.143 485.321,417.066 485.507,417 C485.983,417.376 485.906,417.429 486.031,417.871 L480.845,420.24 L480.845,420.253 L483.083,421.273 C484.199,421.786 485.178,422.24 486.025,422.61 C485.899,423.069 486.002,423.105 485.5,423.499 C485.22,423.403 484.969,423.296 484.748,423.194 C483.268,422.52 481.358,421.661 479,420.575 L479,420.222 C479,420.181 479.078,420.127 479.245,420.055 C479.18,420.079 479.12,420.097 479.061,420.121 L479.061,420.044 C479.061,419.972 479.072,419.894 479.162,419.84 L484.253,417.507 Z" id="Fill-15" fill="#FFFFFF"></path>
                <polygon id="Fill-17" fill="#FFFFFF" points="491 387.123 511.168 387.123 511.168 385 491 385"></polygon>
                <polygon id="Fill-19" fill="#FFFFFF" points="496 395.123 511.664 395.123 511.664 393 496 393"></polygon>
                <polygon id="Fill-20" fill="#FFFFFF" points="503 401.123 511.587 401.123 511.587 399 503 399"></polygon>
                <polygon id="Fill-21" fill="#FFFFFF" points="491 421.123 511.168 421.123 511.168 419 491 419"></polygon>
                <polygon id="Fill-22" fill="#FFFFFF" points="496 414.123 511.664 414.123 511.664 412 496 412"></polygon>
                <polygon id="Fill-23" fill="#FFFFFF" points="503 407.123 511.587 407.123 511.587 405 503 405"></polygon>
                <polygon id="Fill-24" fill="#FFFFFF" points="489.101 417 487 424.564 488.509 424.685 490.609 417.121"></polygon>
                <polygon id="Fill-25" fill="#F4F4F4" points="502.572 434 503.364 440.728 508.103 453.032 503.769 454.365 500.436 441.532 500 434.297"></polygon>
                <polygon id="Fill-26" fill="#241084" points="512.171 467 510.054 488.412 510.759 507.235 503.465 507.235 503.073 505.834 508.073 505.167 505.406 488.5 503 467.773"></polygon>
                <polygon id="Fill-27" fill="#2688C4" points="514.841 467 516.5 485.239 527.667 500.073 526.334 507.073 523 507.073 525 505.573 525.334 501.073 514.667 489.073 505 467.573"></polygon>
                <path d="M494.615,437 L496.944,437.771 C497.891,440.514 499.469,442.996 501.551,445.019 L505.91,449.254 L511.276,452.878 L515.262,467.665 L502.792,468.842 L502.38,452.548 L497.75,446.76 C495.846,444.381 494.558,441.569 494,438.573 L494.615,437 Z" id="Fill-28" fill="#FFFFFF"></path>
                <polygon id="Fill-29" fill="#FFCFD3" points="498.047 439.183 494.98 440.271 493 429.882 493.595 429"></polygon>
                <path d="M498.560408,438.385 L494.701408,440.265 C494.701408,440.265 493.910408,439.572 494.008408,439.177 C494.107408,438.781 494.305408,438.484 494.602408,438.286 C494.899408,438.088 497.868408,437 497.868408,437 L498.560408,438.385 Z" id="Fill-30" fill="#2688C4"></path>
                <polygon id="Fill-31" fill="#FFCFD3" points="500.197 434.541 500 429 502.176 429 502.769 434.244"></polygon>
                <path d="M494.806,429.294 C494.777,429.274 493.412,428.524 493.383,428.427 C493.354,428.329 492.389,426 492.389,426 L491,426.196 L491.396,430.022 L493.309,430.483 L494.806,429.294 Z" id="Fill-32" fill="#FFCFD3"></path>
                <path d="M515.177432,446.894438 C514.247432,449.025438 511.235432,451.217438 509.104432,450.287438 C506.973432,449.357438 506.531432,445.658438 507.460432,443.527438 C508.390432,441.396438 510.871432,440.422438 513.002432,441.352438 C515.133432,442.282438 516.107432,444.763438 515.177432,446.894438" id="Fill-33" fill="#FFCFD3"></path>
                <path d="M509.030003,441.874943 C508.661003,441.612943 508.278003,441.370943 507.883003,441.149943 C507.598003,440.991943 507.151003,440.894943 507.025003,441.193943 C506.963003,441.342943 507.028003,441.510943 507.093003,441.657943 C507.308003,442.149943 507.545003,442.667943 507.986003,442.975943 C508.357003,443.234943 508.852003,443.308943 509.283003,443.167943 C509.672003,443.041943 510.052003,442.745943 510.092003,442.344943 C509.702003,442.268943 509.357003,442.106943 509.030003,441.874943" id="Fill-34" fill="#FFCFD3"></path>
                <path d="M510,450.21 C512.081,450.671 514.737,448.645 515.6,446.668 C516.529,444.536 515.556,442.055 513.425,441.126 C513.296,441.069 513.163,441.042 513.033,441 C512.789,441.258 512.592,441.565 512.504,441.857 C512.161,442.995 512.421,444.34 513.141,445.286 C513.141,445.286 510.73,449.83 510,450.21" id="Fill-35" fill="#241084"></path>
                <path d="M512.482041,446.135896 C512.792041,446.297896 513.031041,446.576896 513.180041,446.891896 C513.665041,447.906896 512.515041,448.903896 511.534041,448.771896 C511.217041,448.729896 510.917041,448.601896 510.640041,448.440896 C510.402041,448.300896 510.169041,448.120896 510.062041,447.864896 C509.959041,447.616896 509.992041,447.327896 510.104041,447.084896 C510.216041,446.841896 510.401041,446.638896 510.601041,446.460896 C511.057041,446.054896 511.921041,445.843896 512.482041,446.135896" id="Fill-36" fill="#FFCFD3"></path>
                <path d="M510.171962,442.358292 C509.431962,442.850292 508.530962,442.796292 508.159962,442.238292 C507.787962,441.680292 508.086962,440.828292 508.826962,440.337292 C509.566962,439.844292 510.466962,439.898292 510.838962,440.456292 C511.209962,441.015292 510.910962,441.866292 510.171962,442.358292" id="Fill-37" fill="#FFFFFF"></path>
                <polygon id="Fill-41" fill="#CACED3" points="255 560.998 466.165 560.998 466.165 339 255 339"></polygon>
                <polygon id="Fill-42" fill="#FFFFFF" points="250 560.998 461.165 560.998 461.165 339 250 339"></polygon>
                <polygon id="Fill-43" fill="#3A3A3A" points="250 356.291 461.165 356.291 461.165 339 250 339"></polygon>
                <path d="M393.265,495 L395.711,509.721 L390.526,509.721 L392.972,495 L393.265,495 Z M416.338,495 L413.892,509.721 L396.725,509.721 L394.279,495 L416.338,495 Z M417.646,495 L420.092,509.721 L414.906,509.721 L417.352,495 L417.646,495 Z M421.866,520.388 L413.132,520.388 L414.74,510.721 L420.258,510.721 L421.866,520.388 Z M423.638,531.054 L411.36,531.054 L412.966,521.388 L422.032,521.388 L423.638,531.054 Z M425.41,541.72 L409.587,541.72 L411.194,532.054 L423.804,532.054 L425.41,541.72 Z M427.184,552.387 L407.814,552.387 L409.42,542.72 L425.577,542.72 L427.184,552.387 Z M406.8,552.387 L403.817,552.387 L402.21,542.72 L408.407,542.72 L406.8,552.387 Z M383.434,552.387 L385.04,542.72 L401.197,542.72 L402.804,552.387 L383.434,552.387 Z M386.813,532.054 L399.424,532.054 L401.031,541.72 L385.206,541.72 L386.813,532.054 Z M388.586,521.388 L397.651,521.388 L399.257,531.054 L386.98,531.054 L388.586,521.388 Z M398.498,520.388 L396.891,510.721 L413.726,510.721 L412.119,520.388 L398.498,520.388 Z M410.18,532.054 L408.574,541.72 L402.044,541.72 L400.438,532.054 L410.18,532.054 Z M400.271,531.054 L398.664,521.388 L411.952,521.388 L410.346,531.054 L400.271,531.054 Z M390.359,510.721 L395.877,510.721 L397.485,520.388 L388.752,520.388 L390.359,510.721 Z M381,560.928 L382.014,560.928 L383.267,553.387 L402.97,553.387 L404.223,560.928 L405.237,560.928 L403.984,553.387 L406.634,553.387 L405.38,560.928 L406.394,560.928 L407.648,553.387 L427.35,553.387 L428.604,560.928 L429.617,560.928 L418.66,495 L420.769,495 L420.769,492 L390.768,492 L390.768,495 L391.958,495 L381,560.928 Z" id="Fill-47" fill="#E6E6E6"></path>
                <polygon id="Fill-48" fill="#2688C4" points="537 425.623 576.652 425.623 576.652 325 537 325"></polygon>
                <polygon id="Fill-49" fill="#38D0E9" points="535 425.623 574.652 425.623 574.652 325 535 325"></polygon>
                <path d="M544.252,329.507 L544.886,329.238 C545.118,329.143 545.321,329.066 545.506,329 C545.983,329.376 545.905,329.429 546.031,329.871 L540.845,332.24 L540.845,332.253 L543.082,333.273 C544.199,333.786 545.178,334.24 546.025,334.61 C545.899,335.069 546.001,335.105 545.5,335.499 C545.22,335.403 544.969,335.296 544.748,335.195 C543.268,334.52 541.358,333.661 539,332.575 L539,332.223 C539,332.181 539.078,332.127 539.245,332.056 C539.18,332.079 539.119,332.097 539.061,332.121 L539.061,332.044 C539.061,331.972 539.072,331.894 539.162,331.84 L544.252,329.507 Z" id="Fill-50" fill="#FFFFFF"></path>
                <path d="M544.252,363.507 L544.886,363.238 C545.118,363.143 545.321,363.065 545.506,363 C545.983,363.376 545.905,363.429 546.031,363.871 L540.845,366.24 L540.845,366.252 L543.082,367.273 C544.199,367.786 545.178,368.24 546.025,368.61 C545.899,369.069 546.001,369.105 545.5,369.499 C545.22,369.403 544.969,369.296 544.748,369.194 C543.268,368.52 541.358,367.661 539,366.575 L539,366.222 C539,366.181 539.078,366.127 539.245,366.055 C539.18,366.079 539.119,366.097 539.061,366.121 L539.061,366.044 C539.061,365.972 539.072,365.894 539.162,365.84 L544.252,363.507 Z" id="Fill-51" fill="#FFFFFF"></path>
                <polygon id="Fill-52" fill="#FFFFFF" points="552 333.123 572.168 333.123 572.168 331 552 331"></polygon>
                <polygon id="Fill-53" fill="#FFFFFF" points="556 341.123 571.664 341.123 571.664 339 556 339"></polygon>
                <polygon id="Fill-54" fill="#FFFFFF" points="563 347.123 571.588 347.123 571.588 345 563 345"></polygon>
                <polygon id="Fill-55" fill="#FFFFFF" points="552 367.123 572.168 367.123 572.168 365 552 365"></polygon>
                <polygon id="Fill-56" fill="#FFFFFF" points="556 359.123 571.664 359.123 571.664 357 556 357"></polygon>
                <polygon id="Fill-57" fill="#FFFFFF" points="563 353.123 571.588 353.123 571.588 351 563 351"></polygon>
                <polygon id="Fill-58" fill="#FFFFFF" points="549.1 362 547 369.564 548.509 369.685 550.609 362.121"></polygon>
                <path d="M544.252,375.507 L544.886,375.238 C545.118,375.143 545.321,375.066 545.506,375 C545.983,375.376 545.905,375.429 546.031,375.871 L540.845,378.24 L540.845,378.253 L543.082,379.273 C544.199,379.786 545.178,380.24 546.025,380.61 C545.899,381.069 546.001,381.105 545.5,381.499 C545.22,381.403 544.969,381.296 544.748,381.195 C543.268,380.52 541.358,379.661 539,378.575 L539,378.222 C539,378.181 539.078,378.127 539.245,378.055 C539.18,378.079 539.119,378.097 539.061,378.121 L539.061,378.044 C539.061,377.972 539.072,377.894 539.162,377.84 L544.252,375.507 Z" id="Fill-59" fill="#FFFFFF"></path>
                <path d="M544.252,409.507 L544.886,409.238 C545.118,409.143 545.321,409.065 545.506,409 C545.983,409.376 545.905,409.429 546.031,409.871 L540.845,412.24 L540.845,412.252 L543.082,413.273 C544.199,413.786 545.178,414.24 546.025,414.61 C545.899,415.069 546.001,415.105 545.5,415.499 C545.22,415.403 544.969,415.296 544.748,415.194 C543.268,414.52 541.358,413.661 539,412.574 L539,412.222 C539,412.181 539.078,412.127 539.245,412.055 C539.18,412.079 539.119,412.097 539.061,412.121 L539.061,412.044 C539.061,411.972 539.072,411.894 539.162,411.84 L544.252,409.507 Z" id="Fill-60" fill="#FFFFFF"></path>
                <polygon id="Fill-61" fill="#FFFFFF" points="552 379.123 572.168 379.123 572.168 377 552 377"></polygon>
                <polygon id="Fill-62" fill="#FFFFFF" points="556 386.123 571.664 386.123 571.664 384 556 384"></polygon>
                <polygon id="Fill-63" fill="#FFFFFF" points="563 393.123 571.588 393.123 571.588 391 563 391"></polygon>
                <polygon id="Fill-64" fill="#FFFFFF" points="552 413.123 572.168 413.123 572.168 411 552 411"></polygon>
                <polygon id="Fill-65" fill="#FFFFFF" points="556 405.123 571.664 405.123 571.664 403 556 403"></polygon>
                <polygon id="Fill-66" fill="#FFFFFF" points="563 399.123 571.588 399.123 571.588 397 563 397"></polygon>
                <polygon id="Fill-67" fill="#FFFFFF" points="549.1 408 547 415.564 548.509 415.686 550.609 408.121"></polygon>
                <polygon id="Fill-69" fill="#241084" points="406.278 574.053 393 494.164 393.986 494 407.264 573.889"></polygon>
                <polygon id="Fill-70" fill="#241084" points="382.279 574.053 369 494.164 369.986 494 383.265 573.889"></polygon>
                <polygon id="Fill-71" fill="#241084" points="372 511 396.598 511 396.598 510 372 510"></polygon>
                <polygon id="Fill-72" fill="#241084" points="374 522 398.599 522 398.599 521 374 521"></polygon>
                <polygon id="Fill-73" fill="#241084" points="376 533 400.598 533 400.598 532 376 532"></polygon>
                <polygon id="Fill-74" fill="#241084" points="378 543 402.598 543 402.598 542 378 542"></polygon>
                <polygon id="Fill-75" fill="#241084" points="379 554 403.598 554 403.598 553 379 553"></polygon>
                <polygon id="Fill-76" fill="#241084" points="381 565 405.599 565 405.599 564 381 564"></polygon>
                <polygon id="Fill-77" fill="#3878FF" points="355.986 574.053 355 573.889 368.278 494 369.265 494.164"></polygon>
                <polygon id="Fill-78" fill="#3878FF" points="379.986 574.053 379 573.889 392.278 494 393.264 494.164"></polygon>
                <polygon id="Fill-79" fill="#3878FF" points="366 511 390.598 511 390.598 510 366 510"></polygon>
                <polygon id="Fill-80" fill="#3878FF" points="364 522 388.598 522 388.598 521 364 521"></polygon>
                <polygon id="Fill-81" fill="#3878FF" points="362 533 386.598 533 386.598 532 362 532"></polygon>
                <polygon id="Fill-82" fill="#3878FF" points="361 543 385.598 543 385.598 542 361 542"></polygon>
                <polygon id="Fill-83" fill="#3878FF" points="359 554 383.598 554 383.598 553 359 553"></polygon>
                <polygon id="Fill-84" fill="#3878FF" points="357 565 381.598 565 381.598 564 357 564"></polygon>
                <polygon id="Fill-85" fill="#3878FF" points="367 495 397 495 397 492 367 492"></polygon>
                <g id="Group-197" transform="translate(547.000000, 461.000000)">
                    <mask id="mask-6" fill="white">
                        <use xlink:href="#path-5"></use>
                    </mask>
                    <g id="Clip-196"></g>
                    <path d="M0.455,16.736 C2.044,17.586 3.595,18.383 4.734,18.962 L7.418,11.519 L7.669,9.155 L4.168,0.105 L0.455,16.736 Z" id="Fill-195" mask="url(#mask-6)"></path>
                </g>
                <path d="M435.631,352.857 L383.272,352.857 C381.472,352.857 380,351.385 380,349.586 L380,347.271 C380,345.472 381.472,344 383.272,344 L435.631,344 C437.431,344 438.902,345.472 438.902,347.271 L438.902,349.586 C438.902,351.385 437.431,352.857 435.631,352.857" id="Fill-198" fill="#FFFFFF"></path>
                <g id="Group-202" transform="translate(170.000000, 600.000000)">
                    <mask id="mask-8" fill="white">
                        <use xlink:href="#path-7"></use>
                    </mask>
                    <g id="Clip-201"></g>
                    <polygon id="Fill-200" mask="url(#mask-8)" points="0.228 12.304 122.382 18.263 162.204 1.228 146.211 0.748"></polygon>
                </g>
                <g id="Group-205" transform="translate(191.000000, 630.000000)">
                    <mask id="mask-10" fill="white">
                        <use xlink:href="#path-9"></use>
                    </mask>
                    <g id="Clip-204"></g>
                    <polygon id="Fill-203" mask="url(#mask-10)" points="0.024 12.231 122.178 18.19 162 1.154 146.007 0.675"></polygon>
                </g>
                <g id="Group-208" transform="translate(280.000000, 580.000000)">
                    <mask id="mask-12" fill="white">
                        <use xlink:href="#path-11"></use>
                    </mask>
                    <g id="Clip-207"></g>
                    <path d="M43.619,3.034 C43.619,4.673 34.015,6 22.168,6 C10.322,6 0.718,4.673 0.718,3.034 C0.718,1.396 10.322,0.068 22.168,0.068 C34.015,0.068 43.619,1.396 43.619,3.034" id="Fill-206" mask="url(#mask-12)"></path>
                </g>
                <g id="Group-211" transform="translate(346.000000, 628.000000)">
                    <mask id="mask-14" fill="white">
                        <use xlink:href="#path-13"></use>
                    </mask>
                    <g id="Clip-210"></g>
                    <path d="M0.57,3.034 C0.57,4.673 10.174,6 22.021,6 C33.867,6 43.471,4.673 43.471,3.034 C43.471,1.396 33.867,0.068 22.021,0.068 C10.174,0.068 0.57,1.396 0.57,3.034" id="Fill-209" mask="url(#mask-14)"></path>
                </g>
                <polygon id="Fill-212" fill="#1F1F89" points="170.04 609.556 170 612.556 289.99 614.152 315.983 601 316.023 598"></polygon>
                <polygon id="Fill-214" fill="#1F1F89" points="289.99 614.747 170 613.151 195.994 600 315.984 601.596"></polygon>
                <polygon id="Fill-216" fill="#FFFFFF" points="289.989 611.747 170 610.151 195.993 597 315.983 598.596"></polygon>
                <polygon id="Fill-218" fill="#3878FF" points="261.931 599.872 196 598.995 197.966 598 263.896 598.877"></polygon>
                <polygon id="Fill-220" fill="#3878FF" points="257.931 601.871 192 600.995 193.966 600 259.897 600.877"></polygon>
                <polygon id="Fill-222" fill="#3878FF" points="252.931 604.871 187 603.995 188.966 603 254.897 603.877"></polygon>
                <polygon id="Fill-224" fill="#3878FF" points="247.931 606.872 182 605.995 183.966 605 249.897 605.877"></polygon>
                <polygon id="Fill-226" fill="#3878FF" points="290.643 609.611 248 609.045 267.851 599 310.495 599.567"></polygon>
                <polygon id="Fill-228" fill="#1F1F89" points="191.04 638.556 191 641.556 310.989 643.152 336.983 630 337.023 627"></polygon>
                <polygon id="Fill-230" fill="#1F1F89" points="310.989 643.747 191 642.151 216.993 629 336.983 630.596"></polygon>
                <polygon id="Fill-232" fill="#FFFFFF" points="310.989 640.747 191 639.151 216.993 626 336.983 627.596"></polygon>
                <polygon id="Fill-234" fill="#2688C4" points="282.931 628.871 217 627.995 218.965 627 284.896 627.877"></polygon>
                <polygon id="Fill-236" fill="#3878FF" points="277.931 631.871 212 630.995 213.966 630 279.896 630.877"></polygon>
                <polygon id="Fill-238" fill="#2688C4" points="272.931 633.871 207 632.995 208.966 632 274.897 632.877"></polygon>
                <polygon id="Fill-240" fill="#3878FF" points="268.931 635.872 203 634.995 204.966 634 270.896 634.877"></polygon>
                <polygon id="Fill-242" fill="#3878FF" points="310.644 638.611 268 638.045 287.852 628 330.496 628.567"></polygon>
                <polygon id="Fill-244" fill="#AFC6F5" points="366 377 453.907942 377 453.907942 369 366 369"></polygon>
                <polygon id="Fill-246" fill="#AFC6F5" points="366 417.613 453.907942 417.613 453.907942 384 366 384"></polygon>
                <polygon id="Fill-247" fill="#3878FF" points="362.599 595 366.05 600.399 369.406 610.747 379.572 627.079 378.018 627.503 365.91 613.964 360 602.537"></polygon>
                <polygon id="Fill-248" fill="#2B159B" points="341.926 602 329 623.547 330.68 624.147 346.287 604.219"></polygon>
                <g id="Group-252" transform="translate(360.000000, 596.000000)">
                    <mask id="mask-16" fill="white">
                        <use xlink:href="#path-15"></use>
                    </mask>
                    <g id="Clip-251"></g>
                    <path d="M2.007,4.268 C1.9,4.59 1.346,6.228 0.77,7.941 L4.312,14.79 L6.103,4.743 L5.822,3.876 L3.603,0.404 L3.168,0.32 C3.168,0.32 2.24,3.571 2.007,4.268" id="Fill-250" mask="url(#mask-16)"></path>
                </g>
                <g id="Group-275" transform="translate(326.000000, 593.000000)">
                    <path d="M10.1052,4.0446 C12.3992,4.4216 15.2652,6.8026 14.8882,9.0966 C14.5112,11.3916 11.0332,12.7296 8.7392,12.3526 C6.4452,11.9756 4.8912,9.8096 5.2682,7.5156 C5.6452,5.2216 7.8112,3.6676 10.1052,4.0446" id="Fill-253" fill="#FFCFD3"></path>
                    <path d="M7.1438,11.3503 C6.9808,11.7723 6.8398,12.2043 6.7238,12.6413 C6.6408,12.9553 6.6568,13.4133 6.9778,13.4613 C7.1368,13.4853 7.2838,13.3803 7.4098,13.2823 C7.8348,12.9523 8.2788,12.5953 8.4688,12.0923 C8.6278,11.6673 8.5778,11.1703 8.3358,10.7873 C8.1178,10.4423 7.7368,10.1453 7.3378,10.2053 C7.3608,10.6033 7.2888,10.9763 7.1438,11.3503" id="Fill-255" fill="#FFCFD3"></path>
                    <path d="M14.9158,8.6003 C14.8508,6.4703 12.2338,4.3943 10.1048,4.0443 C7.8108,3.6673 5.6448,5.2213 5.2688,7.5153 C5.2458,7.6543 5.2518,7.7883 5.2428,7.9263 C5.5538,8.0983 5.8988,8.2143 6.2038,8.2283 C7.3918,8.2803 8.6308,7.6973 9.3708,6.7683 C9.3708,6.7683 14.3678,7.9863 14.9158,8.6003" id="Fill-257" fill="#2B159B"></path>
                    <path d="M9.9626,6.3268 C10.0426,5.9868 10.2546,5.6868 10.5236,5.4648 C11.3886,4.7458 12.6376,5.6148 12.7506,6.5978 C12.7876,6.9158 12.7386,7.2388 12.6496,7.5458 C12.5716,7.8108 12.4556,8.0818 12.2336,8.2478 C12.0196,8.4088 11.7306,8.4478 11.4676,8.3988 C11.2036,8.3498 10.9616,8.2208 10.7396,8.0708 C10.2336,7.7278 9.8166,6.9418 9.9626,6.3268" id="Fill-259" fill="#FFCFD3"></path>
                    <path d="M14.4621,19.7887 L6.4091,33.7757 L8.2461,33.9167 L18.5591,23.4627 L19.9721,10.0407 C19.9721,10.0407 19.9721,5.9427 18.1351,6.2257 C16.2981,6.5087 15.4511,8.7687 15.4511,8.7687 L14.4621,19.7887 Z" id="Fill-261" fill="#2B159B"></path>
                    <path d="M14.6848,6.3571 C23.0038,2.2401 32.4738,0.9581 32.4738,0.9581 L37.0068,9.8211 L16.5808,13.1481 L14.6848,6.3571 Z" id="Fill-263" fill="#2B159B"></path>
                    <path d="M32.4734,0.9577 L33.7424,0.9137 C37.1664,0.7957 40.0054,3.5427 40.0004,6.9697 L33.2494,19.1827 L34.4794,36.7427 L32.6424,36.7427 L28.6354,20.1617 L32.4734,0.9577 Z" id="Fill-265" fill="#3878FF"></path>
                    <path d="M4.8855,31.9245 C4.8855,33.1165 3.9635,34.0825 2.8255,34.0825 C1.6885,34.0825 0.7655,33.1165 0.7655,31.9245 C0.7655,30.7335 1.6885,29.7665 2.8255,29.7665 C3.9635,29.7665 4.8855,30.7335 4.8855,31.9245" id="Fill-267" fill="#FFCFD3"></path>
                    <path d="M9.5676,34.0856 C9.5676,35.2766 8.6456,36.2436 7.5076,36.2436 C6.3706,36.2436 5.4476,35.2766 5.4476,34.0856 C5.4476,32.8936 6.3706,31.9276 7.5076,31.9276 C8.6456,31.9276 9.5676,32.8936 9.5676,34.0856" id="Fill-269" fill="#FFCFD3"></path>
                    <path d="M34.4797,36.7428 L34.8177,38.4868 L25.9917,38.6828 C25.9917,38.6828 26.4817,37.4078 26.7767,37.5068 C27.0707,37.6038 32.6427,36.7428 32.6427,36.7428 L34.4797,36.7428 Z" id="Fill-271" fill="#3878FF"></path>
                    <polygon id="Fill-273" fill="#3878FF" points="53.345 33.5563 54.212 35.5083 46.246 35.7063 46.442 34.7263 51.791 33.9803"></polygon>
                </g>
                <g id="Group-187" transform="translate(267.000000, 434.000000)">
                    <path d="M36.6865,0.709 L12.7575,0.709 C8.6705,0.709 5.3565,4.023 5.3565,8.111 L5.3565,32.04 C5.3565,36.127 8.6705,39.441 12.7575,39.441 L36.6865,39.441 C40.7745,39.441 44.0885,36.127 44.0885,32.04 L44.0885,8.111 C44.0885,4.023 40.7745,0.709 36.6865,0.709" id="Fill-159" fill="#0A5DE2"></path>
                    <polygon id="Fill-161" fill="#F7F5EF" points="14.6313 102.2969 11.7143 72.2989 7.9643 40.2179 10.8813 39.8009 17.5483 70.2149 27.9643 71.0489 38.7963 40.2179 41.7133 40.6339 33.7973 73.5489 34.2133 101.4629"></polygon>
                    <path d="M12.5478,38.5508 C12.5478,39.9318 11.4288,41.0508 10.0478,41.0508 C8.6678,41.0508 7.5478,39.9318 7.5478,38.5508 C7.5478,37.1698 8.6678,36.0508 10.0478,36.0508 C11.4288,36.0508 12.5478,37.1698 12.5478,38.5508" id="Fill-163" fill="#F76D59"></path>
                    <path d="M41.7129,39.3838 C41.7129,40.7648 40.5939,41.8838 39.2129,41.8838 C37.8329,41.8838 36.7129,40.7648 36.7129,39.3838 C36.7129,38.0038 37.8329,36.8838 39.2129,36.8838 C40.5939,36.8838 41.7129,38.0038 41.7129,39.3838" id="Fill-165" fill="#F76D59"></path>
                    <path d="M29.351,61.1006 C29.351,64.6116 26.504,67.4576 22.993,67.4576 C19.482,67.4576 16.636,64.6116 16.636,61.1006 C16.636,57.5886 19.482,54.7426 22.993,54.7426 C26.504,54.7426 29.351,57.5886 29.351,61.1006" id="Fill-167" fill="#F76D59"></path>
                    <path d="M29.351,62.1006 C29.351,65.6116 26.504,68.4576 22.993,68.4576 C19.482,68.4576 16.636,65.6116 16.636,62.1006 C16.636,58.5886 19.482,55.7426 22.993,55.7426 C26.504,55.7426 29.351,58.5886 29.351,62.1006" id="Fill-169" fill="#1F1F89"></path>
                    <polygon id="Fill-171" fill="#3878FF" points="34.2129 101.4629 31.3229 147.4749 28.1389 147.4749 25.4359 101.8369 22.5939 101.9579 20.8559 148.6009 18.3999 148.5429 14.6309 102.2969 14.0769 96.5989 34.1449 96.8599"></polygon>
                    <polygon id="Fill-173" fill="#3878FF" points="31.3227 147.4746 38.3217 148.2456 38.0677 149.3306 27.8187 149.3306 28.1387 147.4746"></polygon>
                    <polygon id="Fill-175" fill="#3878FF" points="20.8554 148.6006 20.8554 149.9076 11.2414 150.2706 11.2414 149.0686 18.3994 148.5426"></polygon>
                    <path d="M0.1308,150 L56.1288,150" id="Stroke-177" stroke="#0A5DE2" stroke-width="2" stroke-linecap="round"></path>
                </g>
                <g id="Group-4" transform="translate(318.000000, 674.000000)">
                    <path d="M49.4292,9.039 C49.4302,9.115 49.4182,9.191 49.4002,9.267 C49.3952,9.285 49.3882,9.303 49.3822,9.321 C49.3642,9.383 49.3382,9.444 49.3062,9.506 C49.2992,9.519 49.2932,9.533 49.2852,9.546 C49.2442,9.617 49.1942,9.688 49.1352,9.759 C49.1222,9.774 49.1082,9.79 49.0942,9.806 C49.0362,9.87 48.9722,9.934 48.9002,9.997 C48.8902,10.006 48.8822,10.014 48.8722,10.022 C48.7912,10.091 48.6992,10.158 48.6002,10.225 C48.5732,10.243 48.5432,10.261 48.5152,10.279 C48.4342,10.33 48.3482,10.38 48.2572,10.43 C48.2212,10.449 48.1872,10.469 48.1502,10.488 C48.0532,10.537 47.9482,10.586 47.8402,10.634 C47.7992,10.651 47.7612,10.671 47.7182,10.689 C47.5622,10.755 47.3972,10.818 47.2192,10.88 L30.1692,16.78 C30.0092,16.836 29.8252,16.877 29.6552,16.926 C29.4042,16.999 29.1552,17.073 28.8862,17.133 C28.5602,17.205 28.2222,17.267 27.8772,17.319 C27.6662,17.352 27.4492,17.376 27.2322,17.401 C26.9642,17.433 26.6982,17.467 26.4232,17.487 C26.3682,17.491 26.3122,17.496 26.2572,17.5 C25.8182,17.529 25.3752,17.547 24.9322,17.549 L24.9022,17.549 C24.4372,17.551 23.9722,17.538 23.5152,17.509 C23.5102,17.509 23.5052,17.509 23.4992,17.508 C23.0412,17.479 22.5912,17.435 22.1542,17.376 C22.1432,17.375 22.1332,17.373 22.1222,17.372 C21.6952,17.313 21.2812,17.24 20.8872,17.152 C20.8742,17.149 20.8612,17.147 20.8482,17.144 C20.4452,17.054 20.0612,16.948 19.7072,16.826 L2.9162,11.075 C2.8222,11.043 2.7392,11.008 2.6512,10.975 C2.5732,10.944 2.4892,10.916 2.4152,10.885 C2.3362,10.851 2.2682,10.816 2.1952,10.782 C2.1252,10.749 2.0492,10.718 1.9852,10.684 C1.9212,10.65 1.8682,10.616 1.8102,10.582 C1.7462,10.545 1.6772,10.509 1.6192,10.472 C1.5682,10.437 1.5262,10.401 1.4792,10.367 C1.4262,10.328 1.3682,10.29 1.3212,10.25 C1.2752,10.211 1.2402,10.171 1.2002,10.131 C1.1632,10.094 1.1202,10.058 1.0882,10.02 C1.0472,9.973 1.0172,9.924 0.9852,9.876 C0.9652,9.846 0.9382,9.816 0.9222,9.786 C0.8992,9.747 0.8882,9.707 0.8712,9.668 C0.8212,9.548 0.7862,9.428 0.7852,9.307 L0.8462,16.817 C0.8462,16.938 0.8812,17.059 0.9312,17.179 C0.9482,17.218 0.9592,17.258 0.9812,17.297 C0.9982,17.327 1.0252,17.356 1.0452,17.387 C1.0772,17.435 1.1072,17.483 1.1482,17.531 C1.1762,17.564 1.2142,17.596 1.2452,17.628 C1.2902,17.672 1.3292,17.717 1.3812,17.761 C1.4142,17.788 1.4552,17.814 1.4902,17.842 C1.5522,17.889 1.6102,17.936 1.6802,17.982 C1.7232,18.011 1.7752,18.037 1.8222,18.065 C1.8952,18.108 1.9642,18.152 2.0452,18.194 C2.0922,18.219 2.1462,18.241 2.1962,18.265 C2.2872,18.31 2.3752,18.353 2.4762,18.396 C2.5372,18.422 2.6082,18.445 2.6732,18.471 C2.7702,18.509 2.8642,18.547 2.9692,18.583 C2.9712,18.584 2.9732,18.585 2.9762,18.586 L19.7672,24.337 C19.9562,24.401 20.1522,24.462 20.3562,24.518 C20.5232,24.564 20.6962,24.607 20.8722,24.647 C20.8842,24.65 20.8972,24.652 20.9092,24.655 C20.9212,24.658 20.9332,24.66 20.9452,24.663 C21.0772,24.692 21.2112,24.721 21.3482,24.747 C21.4982,24.776 21.6502,24.803 21.8042,24.827 C21.9292,24.848 22.0552,24.865 22.1822,24.883 C22.1932,24.884 22.2032,24.886 22.2142,24.888 C22.2262,24.889 22.2392,24.891 22.2512,24.893 C22.3982,24.912 22.5452,24.93 22.6952,24.946 C22.8422,24.962 22.9912,24.976 23.1402,24.988 C23.2792,25 23.4192,25.01 23.5592,25.018 C23.5652,25.019 23.5702,25.019 23.5752,25.019 C23.5812,25.02 23.5872,25.02 23.5932,25.021 C23.7472,25.03 23.9012,25.038 24.0562,25.044 C24.2142,25.051 24.3722,25.055 24.5312,25.058 C24.6762,25.06 24.8202,25.06 24.9652,25.06 L24.9912,25.06 C25.0012,25.06 25.0122,25.06 25.0222,25.06 C25.1942,25.059 25.3662,25.056 25.5382,25.051 C25.7272,25.045 25.9152,25.037 26.1032,25.026 C26.1742,25.022 26.2442,25.016 26.3152,25.011 C26.3722,25.007 26.4282,25.002 26.4842,24.998 C26.5882,24.99 26.6932,24.984 26.7962,24.975 C26.9652,24.96 27.1252,24.932 27.2912,24.912 C27.5092,24.887 27.7252,24.863 27.9372,24.83 C27.9982,24.821 28.0642,24.816 28.1242,24.807 C28.3722,24.766 28.6152,24.72 28.8512,24.669 C28.8842,24.662 28.9122,24.651 28.9452,24.644 C29.2162,24.584 29.4662,24.51 29.7192,24.435 C29.8502,24.397 29.9962,24.369 30.1212,24.328 C30.1572,24.315 30.1932,24.304 30.2292,24.291 L47.2792,18.391 C47.4492,18.332 47.6082,18.271 47.7572,18.209 C47.7642,18.206 47.7702,18.203 47.7782,18.2 C47.8232,18.182 47.8622,18.161 47.9052,18.143 C47.9912,18.103 48.0792,18.066 48.1582,18.026 C48.1762,18.018 48.1922,18.008 48.2092,17.999 C48.2462,17.979 48.2822,17.96 48.3182,17.94 C48.3672,17.913 48.4202,17.887 48.4672,17.859 C48.5052,17.836 48.5382,17.813 48.5752,17.79 C48.6032,17.771 48.6322,17.754 48.6602,17.735 C48.6782,17.723 48.6992,17.711 48.7162,17.699 C48.7892,17.647 48.8582,17.596 48.9202,17.543 C48.9252,17.54 48.9282,17.536 48.9322,17.533 C48.9422,17.524 48.9502,17.516 48.9602,17.508 C49.0052,17.469 49.0492,17.43 49.0882,17.39 C49.1132,17.365 49.1322,17.341 49.1542,17.316 C49.1672,17.301 49.1822,17.285 49.1962,17.269 C49.2052,17.258 49.2172,17.246 49.2272,17.234 C49.2682,17.182 49.3042,17.129 49.3362,17.076 C49.3392,17.07 49.3422,17.063 49.3452,17.057 C49.3542,17.044 49.3592,17.03 49.3662,17.017 C49.3842,16.982 49.4042,16.948 49.4172,16.914 C49.4282,16.887 49.4342,16.859 49.4432,16.832 C49.4492,16.813 49.4542,16.796 49.4592,16.778 C49.4622,16.767 49.4672,16.756 49.4702,16.744 C49.4832,16.685 49.4892,16.625 49.4902,16.564 L49.4902,16.55 L49.4292,9.039 Z" id="Fill-179" fill="#80392E"></path>
                    <path d="M47.3061,7.2754 C50.1721,8.2574 50.1301,9.8724 47.2191,10.8794 L30.1691,16.7804 C27.2581,17.7884 22.5741,17.8084 19.7071,16.8264 L2.9161,11.0754 C0.0491,10.0924 0.0781,8.4784 2.9901,7.4704 L20.0401,1.5704 C22.9511,0.5624 27.6471,0.5424 30.5141,1.5244 L47.3061,7.2754 Z" id="Fill-181" fill="#F76D59"></path>
                </g>
                <path d="M432.644,676 C432.645,676.076 432.633,676.152 432.614,676.228 C432.61,676.246 432.603,676.264 432.597,676.282 C432.578,676.344 432.553,676.405 432.521,676.467 C432.513,676.48 432.508,676.493 432.5,676.507 C432.459,676.578 432.409,676.649 432.35,676.72 C432.337,676.735 432.323,676.751 432.308,676.767 C432.25,676.831 432.187,676.895 432.114,676.958 C432.105,676.967 432.097,676.975 432.087,676.983 C432.005,677.052 431.914,677.119 431.815,677.186 C431.788,677.204 431.758,677.222 431.73,677.24 C431.649,677.291 431.563,677.341 431.471,677.391 C431.436,677.41 431.402,677.43 431.365,677.449 C431.268,677.498 431.163,677.547 431.055,677.595 C431.013,677.612 430.976,677.632 430.933,677.65 C430.777,677.716 430.611,677.779 430.434,677.841 L413.383,683.741 C413.223,683.797 413.04,683.838 412.87,683.887 C412.619,683.96 412.37,684.034 412.1,684.094 C411.775,684.166 411.437,684.228 411.091,684.28 C410.88,684.313 410.664,684.337 410.447,684.362 C410.179,684.394 409.913,684.428 409.638,684.448 C409.582,684.452 409.527,684.457 409.471,684.46 C409.033,684.49 408.59,684.508 408.147,684.51 L408.117,684.51 C407.652,684.512 407.187,684.498 406.73,684.47 C406.725,684.47 406.719,684.47 406.714,684.469 C406.256,684.44 405.806,684.396 405.369,684.337 C405.358,684.336 405.348,684.334 405.336,684.333 C404.91,684.274 404.496,684.201 404.101,684.113 C404.088,684.11 404.076,684.108 404.063,684.105 C403.66,684.015 403.276,683.909 402.921,683.787 L386.13,678.036 C386.037,678.004 385.954,677.969 385.866,677.936 C385.788,677.905 385.704,677.877 385.63,677.846 C385.551,677.812 385.483,677.777 385.41,677.743 C385.339,677.71 385.264,677.679 385.2,677.645 C385.136,677.611 385.083,677.577 385.025,677.543 C384.96,677.506 384.892,677.47 384.834,677.433 C384.783,677.398 384.741,677.362 384.694,677.328 C384.641,677.289 384.582,677.251 384.536,677.211 C384.49,677.172 384.455,677.132 384.415,677.092 C384.377,677.055 384.334,677.019 384.303,676.981 C384.261,676.934 384.232,676.885 384.2,676.837 C384.179,676.807 384.153,676.777 384.136,676.747 C384.114,676.708 384.103,676.668 384.086,676.629 C384.036,676.509 384.001,676.389 384,676.268 L384.06,683.778 C384.061,683.899 384.095,684.02 384.146,684.14 C384.163,684.179 384.174,684.219 384.196,684.258 C384.213,684.288 384.24,684.317 384.259,684.348 C384.292,684.396 384.322,684.444 384.363,684.492 C384.391,684.525 384.428,684.557 384.46,684.589 C384.504,684.633 384.544,684.678 384.596,684.722 C384.628,684.749 384.669,684.775 384.705,684.803 C384.766,684.85 384.825,684.897 384.895,684.943 C384.938,684.972 384.99,684.998 385.037,685.026 C385.11,685.069 385.179,685.113 385.26,685.155 C385.306,685.18 385.361,685.202 385.411,685.226 C385.501,685.271 385.59,685.314 385.691,685.357 C385.751,685.383 385.823,685.406 385.887,685.432 C385.985,685.47 386.079,685.508 386.184,685.544 L386.19,685.547 L402.982,691.298 C403.17,691.362 403.367,691.423 403.571,691.479 C403.738,691.525 403.91,691.568 404.086,691.608 C404.098,691.611 404.112,691.613 404.123,691.616 C404.135,691.619 404.148,691.621 404.16,691.624 C404.292,691.653 404.426,691.682 404.563,691.708 C404.712,691.737 404.865,691.764 405.019,691.788 C405.144,691.809 405.27,691.826 405.397,691.844 C405.408,691.845 405.418,691.847 405.429,691.848 C405.441,691.85 405.454,691.852 405.466,691.854 C405.613,691.873 405.76,691.891 405.91,691.906 C406.056,691.923 406.206,691.937 406.355,691.949 C406.494,691.961 406.633,691.971 406.774,691.979 C406.78,691.98 406.785,691.98 406.79,691.98 C406.796,691.981 406.802,691.981 406.808,691.982 C406.961,691.991 407.116,691.999 407.271,692.005 C407.429,692.012 407.587,692.016 407.746,692.019 C407.89,692.021 408.035,692.021 408.179,692.021 L408.206,692.021 C408.215,692.021 408.226,692.021 408.237,692.021 C408.409,692.02 408.581,692.017 408.752,692.012 C408.942,692.006 409.13,691.998 409.318,691.987 C409.389,691.983 409.459,691.977 409.53,691.972 C409.586,691.968 409.642,691.963 409.699,691.959 C409.802,691.951 409.908,691.945 410.01,691.936 C410.18,691.921 410.339,691.893 410.506,691.873 C410.724,691.848 410.94,691.824 411.152,691.791 C411.213,691.782 411.279,691.777 411.339,691.768 C411.586,691.727 411.83,691.681 412.066,691.63 C412.099,691.623 412.126,691.612 412.16,691.605 C412.431,691.545 412.681,691.471 412.933,691.396 C413.065,691.358 413.21,691.33 413.335,691.289 C413.372,691.276 413.408,691.265 413.444,691.252 L430.494,685.352 C430.663,685.293 430.823,685.232 430.972,685.17 C430.979,685.167 430.985,685.164 430.992,685.161 C431.037,685.143 431.076,685.122 431.119,685.104 C431.206,685.064 431.293,685.027 431.373,684.987 C431.391,684.979 431.406,684.969 431.423,684.96 C431.461,684.94 431.496,684.921 431.532,684.901 C431.582,684.874 431.635,684.848 431.682,684.82 C431.72,684.797 431.753,684.774 431.79,684.751 C431.818,684.732 431.847,684.715 431.874,684.696 C431.893,684.684 431.914,684.672 431.931,684.66 C432.004,684.608 432.073,684.557 432.135,684.504 C432.139,684.501 432.143,684.497 432.147,684.494 C432.157,684.485 432.165,684.477 432.174,684.469 C432.219,684.43 432.264,684.39 432.303,684.351 C432.328,684.326 432.347,684.302 432.369,684.277 C432.382,684.262 432.397,684.246 432.41,684.23 C432.419,684.219 432.432,684.207 432.441,684.195 C432.483,684.143 432.519,684.09 432.55,684.037 C432.554,684.031 432.556,684.024 432.56,684.018 C432.568,684.005 432.574,683.991 432.581,683.978 C432.599,683.943 432.619,683.909 432.632,683.875 C432.643,683.848 432.649,683.82 432.658,683.793 C432.663,683.774 432.669,683.757 432.674,683.739 C432.676,683.728 432.682,683.717 432.684,683.705 C432.697,683.646 432.704,683.586 432.704,683.525 C432.705,683.521 432.705,683.516 432.704,683.511 L432.644,676 Z" id="Fill-183" fill="#1F1F89"></path>
                <path d="M430.519804,674.474455 C433.386804,675.456455 433.344804,677.071455 430.433804,678.078455 L413.382804,683.979455 C410.471804,684.987455 405.788804,685.007455 402.920804,684.025455 L386.129804,678.274455 C383.262804,677.291455 383.292804,675.677455 386.204804,674.669455 L403.253804,668.769455 C406.165804,667.761455 410.861804,667.741455 413.728804,668.723455 L430.519804,674.474455 Z" id="Fill-185" fill="#3878FF"></path>
                <path d="M343,633 L418.999,633" id="Stroke-157" stroke="#0A5DE2" stroke-width="2" stroke-linecap="round"></path>
                <path d="M476,508 L551.999,508" id="Stroke-157-Copy" stroke="#0A5DE2" stroke-width="2" stroke-linecap="round"></path>
                <g id="Group-9" transform="translate(579.000000, 459.000000)">
                    <polygon id="Fill-65" fill="#F7F5EF" points="41.4179 95.5947 38.4809 65.3877 34.7049 33.0827 37.6429 32.6637 44.3559 63.2897 54.8439 64.1297 65.7519 33.0827 68.6889 33.5027 60.7179 66.6467 61.1369 94.7557"></polygon>
                    <path d="M45.1513,54.3252 C44.3583,57.2212 45.6093,61.8662 48.5043,62.6582 C51.3993,63.4512 54.8423,60.0912 55.6343,57.1962 C56.4273,54.3012 54.7233,51.3112 51.8283,50.5192 C48.9333,49.7262 45.9443,51.4302 45.1513,54.3252" id="Fill-66" fill="#FFCFD3"></path>
                    <path d="M49.0214,52.6543 C48.4284,52.4913 47.6004,52.0863 47.2854,51.5283 C47.2544,51.4753 47.2424,51.4253 47.2244,51.3753 C48.5114,50.4463 50.1784,50.0673 51.8284,50.5193 C54.7234,51.3113 56.4274,54.3013 55.6344,57.1963 C55.0694,59.2633 53.1514,61.5593 51.0464,62.4193 C51.0844,61.8363 51.2264,61.2583 51.3754,60.6903 C51.9764,58.4013 52.6444,56.1303 53.3774,53.8813 C51.8974,53.5863 50.4394,53.1753 49.0214,52.6543" id="Fill-67" fill="#2B159B"></path>
                    <path d="M52.4043,57.0806 C52.7973,56.7936 53.3333,56.6636 53.7803,56.8556 C53.8833,56.9006 53.9813,56.9616 54.0603,57.0406 C54.2763,57.2566 54.3403,57.5866 54.3133,57.8906 C54.2413,58.7306 53.5503,59.4356 52.7443,59.6846 C52.5153,59.7556 52.2733,59.7956 52.0363,59.7596 C51.8003,59.7246 51.5693,59.6056 51.4313,59.4106 C50.9253,58.6876 51.8403,57.4926 52.4043,57.0806" id="Fill-68" fill="#FFCFD3"></path>
                    <polygon id="Fill-69" fill="#3878FF" points="61.1367 94.7559 58.2257 141.0879 55.0207 141.0879 52.2987 95.1319 49.4367 95.2539 47.6857 142.2209 45.2127 142.1639 41.4177 95.5949 40.8607 89.8579 61.0677 90.1209"></polygon>
                    <polygon id="Fill-70" fill="#3878FF" points="58.2255 141.0879 65.2735 141.8639 65.0185 142.9569 54.6975 142.9569 55.0205 141.0879"></polygon>
                    <polygon id="Fill-71" fill="#3878FF" points="47.6855 142.2207 47.6855 143.5367 38.0045 143.9037 38.0045 142.6927 45.2125 142.1637"></polygon>
                    <path d="M50.3457,58.2524 C48.5817,58.4434 47.1807,56.6664 45.4207,56.4424 C45.3117,56.4284 45.1947,56.4224 45.0937,56.4694 C44.9637,56.5304 44.8887,56.6674 44.8237,56.7954 C44.5997,57.2304 44.3767,57.6644 44.1547,58.0994 C43.9257,58.5434 43.6967,58.9934 43.5957,59.4824 C43.4767,60.0674 43.5507,60.6744 43.6497,61.2634 C43.7287,61.7304 43.8247,62.2004 44.0337,62.6244 C44.4077,63.3834 45.1257,63.9384 45.9207,64.2284 C46.7147,64.5184 47.5807,64.5634 48.4237,64.4884 C48.9987,64.4374 49.5767,64.3294 50.0927,64.0694 C51.2347,63.4934 51.9287,62.1424 51.7327,60.8794 C51.6847,60.5674 51.5867,60.2564 51.6207,59.9424 C51.6537,59.6354 51.8087,59.3574 51.9607,59.0884 C52.1327,58.7834 53.2967,57.2584 52.3857,57.2504 C52.1097,57.2474 51.7077,57.7214 51.4657,57.8604 C51.1197,58.0614 50.7447,58.2094 50.3457,58.2524" id="Fill-72" fill="#2B159B"></path>
                    <g id="Group-75" transform="translate(34.499500, 32.504900)" fill="#AFC6F5">
                        <polygon id="Fill-73" points="27.4917 11.2803 31.7167 11.2803 34.1887 0.9973 31.2527 0.5783"></polygon>
                        <polygon id="Fill-74" points="3.143 0.1587 0.205 0.5777 1.456 11.2807 5.581 11.2807"></polygon>
                    </g>
                    <path d="M109.3867,0 L11.5767,0 C6.7787,0 2.8877,3.891 2.8877,8.689 L2.8877,23.253 C2.8877,28.052 6.7787,31.942 11.5767,31.942 L109.3867,31.942 C114.1857,31.942 118.0747,28.052 118.0747,23.253 L118.0747,8.689 C118.0747,3.891 114.1857,0 109.3867,0" id="Fill-76" fill="#3878FF"></path>
                    <path d="M106.498,0 L8.689,0 C3.89,0 0,3.891 0,8.689 L0,23.253 C0,28.052 3.89,31.942 8.689,31.942 L106.498,31.942 C111.297,31.942 115.187,28.052 115.187,23.253 L115.187,8.689 C115.187,3.891 111.297,0 106.498,0" id="Fill-77" fill="#FFFFFF"></path>
                    <path d="M97.1084,8.6714 C100.3544,8.6714 102.9964,11.3124 102.9964,14.5574 C102.9964,17.8044 100.3544,20.4444 97.1084,20.4444 C93.8634,20.4444 91.2224,17.8044 91.2224,14.5574 C91.2224,11.3124 93.8634,8.6714 97.1084,8.6714 M107.8994,24.5604 L103.2064,19.6794 C104.4134,18.2434 105.0744,16.4374 105.0744,14.5574 C105.0744,10.1664 101.5024,6.5924 97.1084,6.5924 C92.7174,6.5924 89.1444,10.1664 89.1444,14.5574 C89.1444,18.9504 92.7174,22.5234 97.1084,22.5234 C98.7564,22.5234 100.3304,22.0264 101.6714,21.0804 L106.4034,26.0014 C106.6014,26.2074 106.8664,26.3204 107.1524,26.3204 C107.4214,26.3204 107.6764,26.2174 107.8714,26.0304 C108.2854,25.6324 108.2964,24.9754 107.8994,24.5604" id="Fill-78" fill="#AFC6F5"></path>
                    <path d="M9.4961,144 L113.4961,144" id="Stroke-79" stroke="#0A5DE2" stroke-width="2" stroke-linecap="round"></path>
                    <path d="M38.3203,31.4048 C38.3203,32.7958 37.1933,33.9218 35.8033,33.9218 C34.4133,33.9218 33.2863,32.7958 33.2863,31.4048 C33.2863,30.0148 34.4133,28.8878 35.8033,28.8878 C37.1933,28.8878 38.3203,30.0148 38.3203,31.4048" id="Fill-80" fill="#FFCFD3"></path>
                    <path d="M68.7148,32.1157 C68.7148,33.5057 67.5878,34.6327 66.1968,34.6327 C64.8068,34.6327 63.6798,33.5057 63.6798,32.1157 C63.6798,30.7257 64.8068,29.5987 66.1968,29.5987 C67.5878,29.5987 68.7148,30.7257 68.7148,32.1157" id="Fill-81" fill="#FFCFD3"></path>
                </g>
                <g id="Group-10" transform="translate(461.000000, 527.000000)">
                    <path d="M0.6833,146.76 L76.6823,146.76" id="Stroke-155" stroke="#0A5DE2" stroke-width="2" stroke-linecap="round"></path>
                    <polygon id="Fill-135" fill="#F76D59" points="65.709 100.1307 64.575 84.4527 66.328 72.9127 72.284 38.9057 69.407 38.4947 62.833 68.4907 52.561 69.3137 41.877 38.9057 39 39.3167 46.808 71.7777 49.548 84.1867 49.226 99.3097"></polygon>
                    <polygon id="Fill-136" fill="#1F1F89" points="52.013 57.4947 51 66.4607 57.103 66.9477 60.834 57.4947"></polygon>
                    <path d="M63.327,60.6587 C63.327,64.0627 60.567,66.8227 57.163,66.8227 C53.759,66.8227 51,64.0627 51,60.6587 C51,57.2547 53.759,54.4947 57.163,54.4947 C60.567,54.4947 63.327,57.2547 63.327,60.6587" id="Fill-137" fill="#FFCFD3"></path>
                    <path d="M68.331,0.4947 L44.402,0.4947 C40.314,0.4947 37,3.8087 37,7.8967 L37,31.8257 C37,35.9127 40.314,39.2267 44.402,39.2267 L68.331,39.2267 C72.419,39.2267 75.732,35.9127 75.732,31.8257 L75.732,7.8967 C75.732,3.8087 72.419,0.4947 68.331,0.4947" id="Fill-138" fill="#0A5DE2"></path>
                    <path d="M59.6578329,59.5992526 C59.7788329,59.6582526 59.9178329,59.7122526 60.0428329,59.6632526 C60.1678329,59.6162526 60.2318329,59.4822526 60.3128329,59.3752526 C60.6338329,58.9582526 61.3338329,58.9592526 61.7068329,59.3292526 C62.0798329,59.7002526 62.1168329,60.3312526 61.8578329,60.7892526 C61.5988329,61.2462526 61.0948329,61.5322526 60.5748329,61.6102526 C60.2328329,62.8292526 60.0928329,64.1062526 60.1598329,65.3702526 C61.0058329,65.4332526 61.8518329,65.4952526 62.6988329,65.5582526 C62.8638329,65.5702526 63.0448329,65.5782526 63.1758329,65.4762526 C63.2978329,65.3812526 63.3408329,65.2182526 63.3728329,65.0672526 C63.6888329,63.6162526 63.8468329,62.1292526 63.8448329,60.6432526 C63.8418329,59.1962526 63.6688329,57.6952526 62.9218329,56.4552526 C62.0268329,54.9702526 58.3568329,52.5282526 56.5668329,53.8972526 C54.5948329,55.4062526 58.2938329,58.9432526 59.6578329,59.5992526" id="Fill-139" fill="#1F1F89"></path>
                    <path d="M54.8583259,57.4148184 C53.8153259,58.4358184 52.4623259,59.2148184 51.0043259,59.2788184 C50.9373259,57.6498184 51.6523259,56.0068184 52.8903259,54.9448184 C53.5863259,54.3498184 55.9233259,53.0288184 56.8803259,53.6628184 C57.8723259,54.3188184 55.5633259,56.7248184 54.8583259,57.4148184" id="Fill-140" fill="#1F1F89"></path>
                    <polygon id="Fill-141" fill="#0A5DE2" points="65.414 88.2297 49.699 87.4947 37.609 141.6427 32 138.2277 38.829 146.5207 54.926 101.8877 54.683 122.1307 65.597 136.5927 66.293 141.8127 66.583 144.0317 68.527 143.8007 68.881 135.8457 60.433 122.1077 66.394 99.3647"></polygon>
                    <polygon id="Fill-142" fill="#FFCFD3" points="66 53.5767 69.404 54.7697 72.183 38.9057 69.306 38.4947"></polygon>
                    <polygon id="Fill-143" fill="#FFCFD3" points="46.288 51.0497 42.3 52.6237 39 38.9047 41.877 38.4947"></polygon>
                    <polygon id="Fill-144" fill="#F7F5EF" points="59.435 68.4947 56.486 73.7307 55 68.8497"></polygon>
                    <path d="M38,36.9607 C38,38.3217 39.104,39.4257 40.465,39.4257 C41.826,39.4257 42.931,38.3217 42.931,36.9607 C42.931,35.5987 41.826,34.4947 40.465,34.4947 C39.104,34.4947 38,35.5987 38,36.9607" id="Fill-145" fill="#FFCFD3"></path>
                    <path d="M69,36.9607 C69,38.3217 70.104,39.4257 71.465,39.4257 C72.827,39.4257 73.931,38.3217 73.931,36.9607 C73.931,35.5987 72.827,34.4947 71.465,34.4947 C70.104,34.4947 69,35.5987 69,36.9607" id="Fill-146" fill="#FFCFD3"></path>
                    <g id="Group-8" transform="translate(46.000000, 8.494700)" fill="#F7F5EF">
                        <path d="M15.4727,5.7766 C15.4727,8.5766 13.2027,10.8456 10.4037,10.8456 C7.6027,10.8456 5.3327,8.5766 5.3327,5.7766 C5.3327,2.9766 7.6027,0.7066 10.4037,0.7066 C13.2027,0.7066 15.4727,2.9766 15.4727,5.7766" id="Fill-151"></path>
                        <path d="M20.3652,21.1545 C20.2732,15.8665 15.9662,11.6065 10.6562,11.6065 C5.3462,11.6065 1.0392,15.8665 0.9472,21.1545 L20.3652,21.1545 Z" id="Fill-153"></path>
                    </g>
                </g>
                <path d="M445.331,435 L421.402,435 C417.314,435 414,438.314 414,442.402 L414,466.331 C414,470.419 417.314,473.732 421.402,473.732 L445.331,473.732 C449.419,473.732 452.732,470.419 452.732,466.331 L452.732,442.402 C452.732,438.314 449.419,435 445.331,435" id="Fill-39" fill="#AFC6F5"></path>
                <path d="M399.331,435 L375.402,435 C371.314,435 368,438.314 368,442.402 L368,466.331 C368,470.419 371.314,473.732 375.402,473.732 L399.331,473.732 C403.419,473.732 406.733,470.419 406.733,466.331 L406.733,442.402 C406.733,438.314 403.419,435 399.331,435" id="Fill-41" fill="#F76D59"></path>
                <g id="Group-8" transform="translate(106.000000, 433.000000)">
                    <polygon id="Fill-1" fill="#F4F4F4" points="43.614 47 42.524 56.264 36 73.202 41.966 75.038 46.555 57.37 47.156 47.409"></polygon>
                    <g id="Group-4" transform="translate(29.000000, 91.000000)">
                        <mask id="mask-18" fill="white">
                            <use xlink:href="#path-17"></use>
                        </mask>
                        <g id="Clip-3"></g>
                        <polygon id="Fill-2" mask="url(#mask-18)" points="0.252 0.296 3.167 29.774 2.196 55.689 12.238 55.689 12.778 53.76 5.894 52.842 9.565 29.896 12.877 1.36"></polygon>
                    </g>
                    <polygon id="Fill-5" fill="#3878FF" points="26.657 91 24.373 116.11 9 136.532 10.835 146.169 15.425 146.169 12.671 144.104 12.212 137.909 26.897 121.389 40.206 91.788"></polygon>
                    <polygon id="Fill-6" fill="#F76D59" points="47.542 47.573 47.363 38.234 45.486 38 44 47.164"></polygon>
                    <path d="M28.3293502,59.8409474 C27.6373502,63.2369474 27.5993502,68.4289474 32.6963502,69.2469474 C37.7533502,70.0599474 40.8023502,66.8539474 41.5423502,63.4679474 C42.2823502,60.0819474 41.0303502,55.7269474 35.7993502,55.0509474 C32.3623502,54.6079474 28.8823502,57.1249474 28.3293502,59.8409474" id="Fill-7" fill="#FFCFD3"></path>
                    <path d="M32.6015569,69.0982082 C28.9635569,68.1192082 27.5825569,64.6112082 28.1075569,61.0702082 C28.7495569,56.7372082 33.0225569,54.3952082 36.4075569,55.1352082 C36.6115569,55.1802082 36.7955569,55.2632082 36.9905569,55.3262082 C37.0585569,55.8512082 37.0295569,56.3942082 36.8795569,56.8242082 C36.2985569,58.4962082 34.8095569,59.8932082 33.1145569,60.4072082 C33.1145569,60.4072082 32.0515569,68.0002082 32.6015569,69.0982082" id="Fill-9" fill="#1F1F89"></path>
                    <path d="M32.3955903,61.0217069 C31.8805903,60.9457069 31.3485903,61.0747069 30.8915903,61.3237069 C29.4195903,62.1257069 29.9365903,64.3347069 31.2365903,65.0337069 C31.6555903,65.2587069 32.1305903,65.3687069 32.6045903,65.4147069 C33.0155903,65.4537069 33.4545903,65.4407069 33.8065903,65.2247069 C34.1465903,65.0157069 34.3605903,64.6377069 34.4375903,64.2467069 C34.5145903,63.8537069 34.4685903,63.4477069 34.3825903,63.0577069 C34.1865903,62.1677069 33.3275903,61.1587069 32.3955903,61.0217069" id="Fill-11" fill="#FFCFD3"></path>
                    <path d="M37.1963184,58.9672037 C37.6593184,60.2082037 38.7943184,60.9302037 39.7303184,60.5802037 C40.6663184,60.2322037 41.0503184,58.9432037 40.5873184,57.7012037 C40.1243184,56.4612037 38.9893184,55.7382037 38.0533184,56.0882037 C37.1173184,56.4382037 36.7333184,57.7272037 37.1963184,58.9672037" id="Fill-13" fill="#F7F5EF"></path>
                    <path d="M53.425,51 L50.219,52.061 C48.915,55.837 46.742,59.255 43.877,62.039 L37.876,67.869 L30.488,72.859 L25,93.217 L42.168,94.837 L42.735,72.404 L49.109,64.437 C51.73,61.161 53.504,57.29 54.273,53.166 L53.425,51 Z" id="Fill-17" fill="#F7F5EF"></path>
                    <path d="M62.33,0 L38.401,0 C34.314,0 31,3.314 31,7.402 L31,31.331 C31,35.418 34.314,38.732 38.401,38.732 L62.33,38.732 C66.418,38.732 69.732,35.418 69.732,31.331 L69.732,7.402 C69.732,3.314 66.418,0 62.33,0" id="Fill-19" fill="#F3F8FF"></path>
                    <path d="M54,38.112 C54,39.278 54.945,40.223 56.112,40.223 C57.278,40.223 58.224,39.278 58.224,38.112 C58.224,36.945 57.278,36 56.112,36 C54.945,36 54,36.945 54,38.112" id="Fill-21" fill="#F76D59"></path>
                    <polygon id="Fill-23" fill="#F76D59" points="50 52.521 54.223 54.02 57.618 38.551 55.195 38"></polygon>
                    <path d="M59.645,14.823 C59.645,20.248 49.822,34.646 49.822,34.646 C49.822,34.646 40,20.248 40,14.823 C40,9.398 44.397,5 49.822,5 C55.248,5 59.645,9.398 59.645,14.823" id="Fill-25" fill="#F76D59"></path>
                    <path d="M54.414,14.706 C54.414,17.306 52.307,19.413 49.707,19.413 C47.108,19.413 45,17.306 45,14.706 C45,12.107 47.108,10 49.707,10 C52.307,10 54.414,12.107 54.414,14.706" id="Fill-27" fill="#F7F5EF"></path>
                    <path d="M0,147 L75.999,147" id="Stroke-29" stroke="#0A5DE2" stroke-width="2" stroke-linecap="round"></path>
                </g>
                <g id="Group-12" transform="translate(284.000000, 371.000000)">
                    <path d="M44.717866,16.2531647 C45.261866,17.6751647 44.549866,19.2681647 43.127866,19.8121647 C41.705866,20.3561647 40.113866,19.6451647 39.569866,18.2231647 C39.025866,16.8011647 39.736866,15.2081647 41.157866,14.6641647 C42.579866,14.1201647 44.173866,14.8311647 44.717866,16.2531647" id="Fill-82" fill="#AFC6F5"></path>
                    <path d="M36.388766,4.25076472 L12.820766,0.112764719 C8.79476596,-0.594235281 4.95776596,2.09676472 4.25076596,6.12376472 L0.112765963,29.6917647 C-0.594234037,33.7177647 2.09676596,37.5547647 6.12276596,38.2617647 L29.690766,42.3987647 C33.717766,43.1057647 37.554766,40.4157647 38.261766,36.3887647 L42.399766,12.8207647 C43.105766,8.79476472 40.414766,4.95776472 36.388766,4.25076472" id="Fill-83" fill="#3878FF"></path>
                    <polygon id="Fill-85" fill="#D64536" points="44.086066 16.5500647 51.525066 19.4590647 73.161066 21.5050647 65.939066 26.6010647 50.738066 22.9510647 42.968066 19.3910647"></polygon>
                    <path d="M70.226666,13.2697647 C71.423666,16.3997647 69.857666,19.9077647 66.727666,21.1047647 C63.597666,22.3017647 60.089666,20.7357647 58.892666,17.6057647 C57.694666,14.4757647 59.261666,10.9677647 62.391666,9.77076472 C65.520666,8.57276472 69.029666,10.1397647 70.226666,13.2697647" id="Fill-86" fill="#FFCFD3"></path>
                    <path d="M40.626166,19.1716647 C43.796166,20.4616647 54.436166,23.2916647 57.847166,23.0156647 L64.988166,22.4386647 L72.371166,20.4926647 L88.585166,28.4406647 L79.943166,40.4166647 L65.169166,28.1276647 L56.439166,27.7396647 C52.851166,27.5806647 42.666166,23.6946647 39.574166,21.8636647 L40.626166,19.1716647 Z" id="Fill-91" fill="#F76D59"></path>
                    <path d="M71.161266,11.7204647 C69.897266,8.86246472 64.822266,8.16546472 61.996266,9.49646472 C61.825266,9.57746472 61.680266,9.68746472 61.521266,9.78246472 C61.567266,10.2574647 61.703266,10.7274647 61.921266,11.0754647 C62.767266,12.4294647 64.357266,13.3574647 65.951266,13.4674647 C65.951266,13.4674647 66.070266,13.7824647 66.249266,14.2684647 C66.437266,14.0604647 66.646266,13.8814647 66.890266,13.7864647 C67.327266,13.6164647 67.821266,13.6224647 68.272266,13.7494647 C69.727266,14.1584647 69.718266,16.2034647 68.716266,17.0794647 C68.392266,17.3624647 67.998266,17.5534647 67.590266,17.6894647 C67.541266,17.7054647 67.488266,17.7104647 67.437266,17.7244647 C67.306266,19.6894647 67.426266,19.9184647 67.853266,20.5324647 C70.162266,18.8354647 72.826266,15.4874647 71.161266,11.7204647" id="Fill-93" fill="#1F1F89"></path>
                    <polygon id="Fill-95" fill="#3878FF" points="119.412266 35.0070647 104.902266 41.3270647 88.192266 28.4850647 79.620266 40.2420647 104.891266 48.0000647 119.849266 37.9680647 123.029266 41.5190647 124.103266 40.4770647"></polygon>
                    <path d="M41.516766,19.0769647 C42.060766,20.4989647 41.349766,22.0929647 39.927766,22.6369647 C38.505766,23.1809647 36.912766,22.4689647 36.368766,21.0469647 C35.824766,19.6249647 36.536766,18.0319647 37.957766,17.4879647 C39.379766,16.9439647 40.972766,17.6559647 41.516766,19.0769647" id="Fill-97" fill="#AFC6F5"></path>
                </g>
                <g id="Group-11" transform="translate(151.000000, 266.000000)">
                    <path d="M50.2742239,246.5546 L65.8402239,246.5546 L65.8402239,53.8866 L50.2742239,53.8866 L50.2742239,246.5546 Z M48.2742239,248.5546 L67.8402239,248.5546 L67.8402239,51.8866 L48.2742239,51.8866 L48.2742239,248.5546 Z" id="Fill-99" fill="#3878FF"></path>
                    <polygon id="Fill-101" fill="#1F1F89" points="45.5952239 255.8886 70.5182239 255.8886 70.5182239 238.0296 45.5952239 238.0296"></polygon>
                    <path d="M49.1671239,166.5507 L66.5001239,166.5507 C66.8971239,166.5507 67.2571239,166.3157 67.4171239,165.9507 C67.5761239,165.5867 67.5041239,165.1627 67.2341239,164.8707 L50.5671239,146.8717 L49.1001239,148.2297 L64.2111239,164.5507 L49.1671239,164.5507 L49.1671239,166.5507 Z" id="Fill-102" fill="#3878FF"></path>
                    <path d="M49.1671239,185.0282 L66.5001239,185.0282 C66.8971239,185.0282 67.2571239,184.7932 67.4171239,184.4282 C67.5761239,184.0642 67.5041239,183.6402 67.2341239,183.3482 L50.5671239,165.3492 L49.1001239,166.7082 L64.2111239,183.0282 L49.1671239,183.0282 L49.1671239,185.0282 Z" id="Fill-103" fill="#3878FF"></path>
                    <path d="M49.1671239,203.5058 L66.5001239,203.5058 C66.8971239,203.5058 67.2571239,203.2708 67.4171239,202.9058 C67.5761239,202.5418 67.5041239,202.1178 67.2341239,201.8258 L50.5671239,183.8268 L49.1001239,185.1858 L64.2111239,201.5058 L49.1671239,201.5058 L49.1671239,203.5058 Z" id="Fill-104" fill="#3878FF"></path>
                    <path d="M49.1671239,221.9833 L66.5001239,221.9833 C66.8971239,221.9833 67.2571239,221.7483 67.4171239,221.3833 C67.5761239,221.0193 67.5041239,220.5953 67.2341239,220.3033 L50.5671239,202.3043 L49.1001239,203.6633 L64.2111239,219.9833 L49.1671239,219.9833 L49.1671239,221.9833 Z" id="Fill-105" fill="#3878FF"></path>
                    <path d="M49.1671239,148.5165 L66.5001239,148.5165 C66.8971239,148.5165 67.2571239,148.2815 67.4171239,147.9165 C67.5761239,147.5525 67.5041239,147.1285 67.2341239,146.8375 L50.5671239,128.8375 L49.1001239,130.1955 L64.2111239,146.5165 L49.1671239,146.5165 L49.1671239,148.5165 Z" id="Fill-106" fill="#3878FF"></path>
                    <path d="M49.1671239,130.4496 L66.5001239,130.4496 C66.8971239,130.4496 67.2571239,130.2146 67.4171239,129.8496 C67.5761239,129.4866 67.5041239,129.0616 67.2341239,128.7706 L50.5671239,110.7706 L49.1001239,112.1286 L64.2111239,128.4496 L49.1671239,128.4496 L49.1671239,130.4496 Z" id="Fill-107" fill="#3878FF"></path>
                    <path d="M49.1671239,112.4159 L66.5001239,112.4159 C66.8971239,112.4159 67.2571239,112.1799 67.4171239,111.8159 C67.5761239,111.4519 67.5041239,111.0279 67.2341239,110.7369 L50.5671239,92.7369 L49.1001239,94.0949 L64.2111239,110.4159 L49.1671239,110.4159 L49.1671239,112.4159 Z" id="Fill-108" fill="#3878FF"></path>
                    <path d="M49.1671239,94.3817 L66.5001239,94.3817 C66.8971239,94.3817 67.2571239,94.1457 67.4171239,93.7817 C67.5761239,93.4177 67.5041239,92.9937 67.2341239,92.7027 L50.5671239,74.7027 L49.1001239,76.0607 L64.2111239,92.3817 L49.1671239,92.3817 L49.1671239,94.3817 Z" id="Fill-109" fill="#3878FF"></path>
                    <path d="M49.1671239,76.347 L66.5001239,76.347 C66.8971239,76.347 67.2571239,76.112 67.4171239,75.748 C67.5761239,75.383 67.5041239,74.959 67.2341239,74.668 L50.5671239,56.668 L49.1001239,58.026 L64.2111239,74.347 L49.1671239,74.347 L49.1671239,76.347 Z" id="Fill-110" fill="#3878FF"></path>
                    <path d="M49.1671239,58.3134 L66.5001239,58.3134 C66.8971239,58.3134 67.2571239,58.0784 67.4171239,57.7134 C67.5761239,57.3494 67.5041239,56.9254 67.2341239,56.6344 L50.5671239,38.6344 L49.1001239,39.9924 L64.2111239,56.3134 L49.1671239,56.3134 L49.1671239,58.3134 Z" id="Fill-111" fill="#3878FF"></path>
                    <polygon id="Fill-112" fill="#1F1F89" points="48.3072239 58.6726 80.0262239 58.6726 80.0262239 31.9326 48.3072239 31.9326"></polygon>
                    <polygon id="Fill-113" fill="#1F1F89" points="0.641223903 47.2916 32.3602239 47.2916 32.3602239 31.9326 0.641223903 31.9326"></polygon>
                    <path d="M1.1671239,33.8846 L157.834124,33.8846 C158.386124,33.8846 158.834124,33.4366 158.834124,32.8846 C158.834124,32.3326 158.386124,31.8846 157.834124,31.8846 L1.1671239,31.8846 C0.615123903,31.8846 0.167123903,32.3326 0.167123903,32.8846 C0.167123903,33.4366 0.615123903,33.8846 1.1671239,33.8846" id="Fill-114" fill="#3878FF"></path>
                    <polygon id="Fill-115" fill="#3878FF" points="149.556224 102.5526 150.556224 102.5526 150.556224 37.5526 149.556224 37.5526"></polygon>
                    <polygon id="Fill-116" fill="#3878FF" points="37.0952239 260.5546 79.0192239 260.5546 79.0192239 252.6966 37.0952239 252.6966"></polygon>
                    <path d="M64.0499239,33.6234 C64.1779239,33.6234 64.3059239,33.5744 64.4039239,33.4764 L72.7569239,25.1234 L149.342924,25.1234 L157.195924,32.9764 C157.391924,33.1714 157.707924,33.1714 157.903924,32.9764 C158.098924,32.7814 158.098924,32.4654 157.903924,32.2694 L149.756924,24.1234 L72.3429239,24.1234 L63.6959239,32.7694 C63.5009239,32.9654 63.5009239,33.2814 63.6959239,33.4764 C63.7939239,33.5744 63.9219239,33.6234 64.0499239,33.6234" id="Fill-117" fill="#3878FF"></path>
                    <path d="M0.499623903,33.6234 C0.679623903,33.6234 0.853623903,33.5254 0.942623903,33.3544 L9.3026239,17.3844 L29.5766239,17.3844 L37.4376239,32.8494 C37.5626239,33.0954 37.8646239,33.1914 38.1096239,33.0694 C38.3556239,32.9444 38.4546239,32.6424 38.3296239,32.3964 L30.1896239,16.3844 L8.6976239,16.3844 L0.0576239026,32.8914 C-0.0713760974,33.1364 0.0236239026,33.4374 0.268623903,33.5664 C0.342623903,33.6044 0.421623903,33.6234 0.499623903,33.6234" id="Fill-118" fill="#3878FF"></path>
                    <path d="M146.389324,37.5516 C146.389324,39.5766 148.030324,41.2186 150.056324,41.2186 C152.080324,41.2186 153.722324,39.5766 153.722324,37.5516 C153.722324,35.5266 152.080324,33.8846 150.056324,33.8846 C148.030324,33.8846 146.389324,35.5266 146.389324,37.5516" id="Fill-119" fill="#1F1F89"></path>
                    <path d="M128.376624,25.1161 C128.590624,25.1161 128.789624,24.9771 128.854624,24.7621 C128.935624,24.4981 128.786624,24.2181 128.522624,24.1371 L54.4896239,1.5641 C54.3766239,1.5301 54.2556239,1.5361 54.1486239,1.5821 L19.0606239,16.3911 C18.8056239,16.4981 18.6866239,16.7911 18.7936239,17.0451 C18.9016239,17.3001 19.1946239,17.4201 19.4486239,17.3121 L54.3706239,2.5741 L128.230624,25.0941 C128.279624,25.1091 128.328624,25.1161 128.376624,25.1161" id="Fill-120" fill="#3878FF"></path>
                    <path d="M65.9908239,33.6903 C66.1088239,33.6903 66.2288239,33.6693 66.3458239,33.6243 C66.8628239,33.4283 67.1218239,32.8503 66.9258239,32.3343 L55.2678239,1.6593 C55.1108239,1.2443 54.6998239,0.9823 54.2518239,1.0193 C53.8078239,1.0553 53.4408239,1.3813 53.3528239,1.8173 L47.3268239,31.7343 C47.2178239,32.2753 47.5688239,32.8033 48.1098239,32.9123 C48.6498239,33.0173 49.1788239,32.6703 49.2878239,32.1283 L54.6298239,5.6093 L65.0558239,33.0453 C65.2078239,33.4443 65.5878239,33.6903 65.9908239,33.6903" id="Fill-121" fill="#3878FF"></path>
                    <path d="M52.3185239,2.015 C52.3185239,3.128 53.2205239,4.03 54.3335239,4.03 C55.4465239,4.03 56.3485239,3.128 56.3485239,2.015 C56.3485239,0.902 55.4465239,0 54.3335239,0 C53.2205239,0 52.3185239,0.902 52.3185239,2.015" id="Fill-122" fill="#BCCCFD"></path>
                    <path d="M138.917624,33.7181 C139.027624,33.7181 139.138624,33.6821 139.231624,33.6071 L149.050624,25.6701 L149.050624,33.0911 C149.050624,33.3671 149.274624,33.5911 149.550624,33.5911 C149.827624,33.5911 150.050624,33.3671 150.050624,33.0911 L150.050624,24.6231 C150.050624,24.4301 149.939624,24.2551 149.766624,24.1721 C149.593624,24.0881 149.386624,24.1121 149.236624,24.2341 L138.602624,32.8291 C138.387624,33.0031 138.354624,33.3181 138.528624,33.5331 C138.626624,33.6551 138.771624,33.7181 138.917624,33.7181" id="Fill-123" fill="#3878FF"></path>
                    <path d="M129.422024,33.7181 C129.532024,33.7181 129.643024,33.6821 129.736024,33.6071 L139.556024,25.6701 L139.556024,33.0911 C139.556024,33.3671 139.779024,33.5911 140.056024,33.5911 C140.332024,33.5911 140.556024,33.3671 140.556024,33.0911 L140.556024,24.6231 C140.556024,24.4301 140.445024,24.2551 140.271024,24.1721 C140.099024,24.0881 139.892024,24.1121 139.741024,24.2341 L129.107024,32.8291 C128.892024,33.0031 128.859024,33.3181 129.033024,33.5331 C129.131024,33.6551 129.276024,33.7181 129.422024,33.7181" id="Fill-124" fill="#3878FF"></path>
                    <path d="M119.926424,33.7181 C120.036424,33.7181 120.147424,33.6821 120.240424,33.6071 L130.060424,25.6701 L130.060424,33.0911 C130.060424,33.3671 130.283424,33.5911 130.560424,33.5911 C130.836424,33.5911 131.060424,33.3671 131.060424,33.0911 L131.060424,24.6231 C131.060424,24.4301 130.949424,24.2551 130.775424,24.1721 C130.603424,24.0881 130.396424,24.1121 130.245424,24.2341 L119.611424,32.8291 C119.396424,33.0031 119.363424,33.3181 119.537424,33.5331 C119.635424,33.6551 119.780424,33.7181 119.926424,33.7181" id="Fill-125" fill="#3878FF"></path>
                    <path d="M110.431324,33.7181 C110.541324,33.7181 110.652324,33.6821 110.745324,33.6071 L120.564324,25.6701 L120.564324,33.0911 C120.564324,33.3671 120.788324,33.5911 121.064324,33.5911 C121.341324,33.5911 121.564324,33.3671 121.564324,33.0911 L121.564324,24.6231 C121.564324,24.4301 121.453324,24.2551 121.280324,24.1721 C121.107324,24.0881 120.901324,24.1121 120.750324,24.2341 L110.116324,32.8291 C109.901324,33.0031 109.868324,33.3181 110.042324,33.5331 C110.140324,33.6551 110.285324,33.7181 110.431324,33.7181" id="Fill-126" fill="#3878FF"></path>
                    <path d="M100.935724,33.7181 C101.045724,33.7181 101.156724,33.6821 101.249724,33.6071 L111.069724,25.6701 L111.069724,33.0911 C111.069724,33.3671 111.292724,33.5911 111.569724,33.5911 C111.845724,33.5911 112.069724,33.3671 112.069724,33.0911 L112.069724,24.6231 C112.069724,24.4301 111.958724,24.2551 111.784724,24.1721 C111.611724,24.0881 111.405724,24.1121 111.254724,24.2341 L100.620724,32.8291 C100.405724,33.0031 100.372724,33.3181 100.546724,33.5331 C100.644724,33.6551 100.789724,33.7181 100.935724,33.7181" id="Fill-127" fill="#3878FF"></path>
                    <path d="M91.4401239,33.7181 C91.5501239,33.7181 91.6611239,33.6821 91.7541239,33.6071 L101.574124,25.6701 L101.574124,33.0911 C101.574124,33.3671 101.797124,33.5911 102.074124,33.5911 C102.350124,33.5911 102.574124,33.3671 102.574124,33.0911 L102.574124,24.6231 C102.574124,24.4301 102.463124,24.2551 102.289124,24.1721 C102.117124,24.0881 101.910124,24.1121 101.759124,24.2341 L91.1251239,32.8291 C90.9101239,33.0031 90.8771239,33.3181 91.0511239,33.5331 C91.1491239,33.6551 91.2941239,33.7181 91.4401239,33.7181" id="Fill-128" fill="#3878FF"></path>
                    <path d="M81.9449239,33.7181 C82.0549239,33.7181 82.1659239,33.6821 82.2589239,33.6071 L92.0789239,25.6701 L92.0789239,33.0911 C92.0789239,33.3671 92.3019239,33.5911 92.5789239,33.5911 C92.8549239,33.5911 93.0789239,33.3671 93.0789239,33.0911 L93.0789239,24.6231 C93.0789239,24.4301 92.9679239,24.2551 92.7939239,24.1721 C92.6219239,24.0881 92.4149239,24.1121 92.2639239,24.2341 L81.6299239,32.8291 C81.4149239,33.0031 81.3819239,33.3181 81.5559239,33.5331 C81.6539239,33.6551 81.7989239,33.7181 81.9449239,33.7181" id="Fill-129" fill="#3878FF"></path>
                    <path d="M72.4493239,33.7181 C72.5593239,33.7181 72.6703239,33.6821 72.7633239,33.6071 L82.5833239,25.6701 L82.5833239,33.0911 C82.5833239,33.3671 82.8063239,33.5911 83.0833239,33.5911 C83.3593239,33.5911 83.5833239,33.3671 83.5833239,33.0911 L83.5833239,24.6231 C83.5833239,24.4301 83.4723239,24.2551 83.2983239,24.1721 C83.1253239,24.0881 82.9183239,24.1121 82.7683239,24.2341 L72.1343239,32.8291 C71.9193239,33.0031 71.8863239,33.3181 72.0603239,33.5331 C72.1583239,33.6551 72.3033239,33.7181 72.4493239,33.7181" id="Fill-130" fill="#3878FF"></path>
                    <path d="M16.3146239,33.7181 C16.4566239,33.7181 16.5976239,33.6581 16.6966239,33.5411 L29.4496239,18.4901 L29.4496239,33.0911 C29.4496239,33.3671 29.6736239,33.5911 29.9496239,33.5911 C30.2266239,33.5911 30.4496239,33.3671 30.4496239,33.0911 L30.4496239,17.1271 C30.4496239,16.9171 30.3186239,16.7291 30.1226239,16.6581 C29.9246239,16.5841 29.7046239,16.6431 29.5686239,16.8031 L15.9336239,32.8951 C15.7546239,33.1051 15.7816239,33.4211 15.9916239,33.5991 C16.0856239,33.6791 16.2006239,33.7181 16.3146239,33.7181" id="Fill-131" fill="#3878FF"></path>
                    <path d="M6.5060239,33.7181 C6.6680239,33.7181 6.8270239,33.6401 6.9230239,33.4941 L16.6410239,18.7911 L16.6410239,33.0911 C16.6410239,33.3671 16.8640239,33.5911 17.1410239,33.5911 C17.4170239,33.5911 17.6410239,33.3671 17.6410239,33.0911 L17.6410239,17.1271 C17.6410239,16.9061 17.4960239,16.7121 17.2850239,16.6481 C17.0710239,16.5871 16.8450239,16.6671 16.7240239,16.8511 L6.0890239,32.9421 C5.9370239,33.1731 6.0010239,33.4831 6.2310239,33.6351 C6.3160239,33.6911 6.4110239,33.7181 6.5060239,33.7181" id="Fill-132" fill="#3878FF"></path>
                    <path d="M146.907324,103.8852 C146.907324,105.6242 148.317324,107.0332 150.055324,107.0332 C151.794324,107.0332 153.204324,105.6242 153.204324,103.8852 C153.204324,102.1462 151.794324,100.7372 150.055324,100.7372 C148.317324,100.7372 146.907324,102.1462 146.907324,103.8852" id="Fill-133" fill="#1F1F89"></path>
                    <path d="M19.0812239,261.2997 L95.0802239,261.2997" id="Stroke-134" stroke="#0A5DE2" stroke-width="2" stroke-linecap="round"></path>
                </g>
                <g id="Group-15" transform="translate(335.000000, 273.000000)">
                    <path d="M6.115,0 L21.069,0 C24.446,0 27.184,2.737 27.184,6.114 L27.184,8.009 L29.617,9.636 C30.241,10.053 30.241,10.729 29.617,11.146 L27.184,12.773 L27.184,14.667 C27.184,18.044 24.446,20.782 21.069,20.782 L6.115,20.782 C2.738,20.782 0,18.044 0,14.667 L0,6.114 C0,2.737 2.738,0 6.115,0" id="Fill-138" fill="#3878FF"></path>
                    <g id="Group-150" transform="translate(4.000000, 4.000000)" fill="#FFFFFF">
                        <path d="M17.7175,5.8178 C17.5635,5.5918 17.4605,5.3188 17.4075,4.9978 C17.3555,4.6768 17.3255,4.2648 17.3175,3.7628 C17.3095,3.2498 17.2925,2.9028 17.2645,2.7248 C17.2385,2.5458 17.1795,2.4248 17.0905,2.3618 C17.0005,2.2998 16.8425,2.2538 16.6175,2.2228 C16.4655,2.2028 16.3425,2.1328 16.2465,2.0118 C16.1515,1.8918 16.1035,1.7268 16.1035,1.5158 C16.1035,1.0528 16.3895,0.8218 16.9615,0.8218 C17.5095,0.8218 17.9485,0.9828 18.2775,1.3028 C18.6065,1.6238 18.7765,2.0528 18.7885,2.5898 C18.8035,3.4578 18.8155,4.0058 18.8235,4.2328 C18.8315,4.4608 18.8595,4.6708 18.9075,4.8628 C18.9565,5.0558 19.0405,5.2138 19.1585,5.3368 C19.2775,5.4588 19.4775,5.6078 19.7575,5.7828 C19.9835,5.9268 20.0955,6.1428 20.0955,6.4308 C20.0955,6.6288 20.0565,6.7738 19.9795,6.8648 C19.9015,6.9568 19.7695,7.0598 19.5855,7.1748 C19.4005,7.2898 19.2505,7.4128 19.1355,7.5458 C19.0215,7.6778 18.9345,7.8738 18.8765,8.1348 C18.8525,8.2398 18.8355,8.4718 18.8235,8.8298 C18.8115,9.1878 18.8005,9.6618 18.7885,10.2538 C18.7845,10.6038 18.7065,10.9138 18.5545,11.1848 C18.4035,11.4548 18.1885,11.6638 17.9095,11.8118 C17.6325,11.9598 17.3155,12.0338 16.9615,12.0338 C16.3895,12.0338 16.1035,11.7978 16.1035,11.3278 C16.1035,11.1248 16.1525,10.9618 16.2495,10.8368 C16.3465,10.7128 16.4695,10.6408 16.6175,10.6208 C16.7965,10.5938 16.9225,10.5658 16.9965,10.5368 C17.0705,10.5068 17.1345,10.4448 17.1865,10.3498 C17.2385,10.2548 17.2735,10.1148 17.2915,9.9328 C17.3085,9.7498 17.3175,9.4648 17.3175,9.0808 C17.3175,8.5668 17.3485,8.1458 17.4105,7.8168 C17.4735,7.4878 17.5825,7.2178 17.7385,7.0048 C17.8935,6.7938 18.1095,6.6018 18.3855,6.4308 C18.0935,6.2478 17.8715,6.0438 17.7175,5.8178" id="Fill-140"></path>
                        <path d="M13.3518,9.4336 C13.1788,9.2756 13.0918,9.0586 13.0918,8.7826 C13.0918,8.5416 13.1788,8.3366 13.3518,8.1666 C13.5248,7.9976 13.7338,7.9126 13.9788,7.9126 C14.2248,7.9126 14.4308,7.9986 14.5978,8.1696 C14.7658,8.3416 14.8488,8.5456 14.8488,8.7826 C14.8488,9.0626 14.7618,9.2806 14.5858,9.4366 C14.4108,9.5916 14.2028,9.6696 13.9618,9.6696 C13.7278,9.6696 13.5248,9.5906 13.3518,9.4336" id="Fill-142"></path>
                        <path d="M9.6106,9.4336 C9.4376,9.2756 9.3506,9.0586 9.3506,8.7826 C9.3506,8.5416 9.4376,8.3366 9.6106,8.1666 C9.7836,7.9976 9.9926,7.9126 10.2376,7.9126 C10.4836,7.9126 10.6896,7.9986 10.8566,8.1696 C11.0246,8.3416 11.1076,8.5456 11.1076,8.7826 C11.1076,9.0626 11.0206,9.2806 10.8446,9.4366 C10.6696,9.5916 10.4616,9.6696 10.2206,9.6696 C9.9866,9.6696 9.7836,9.5906 9.6106,9.4336" id="Fill-144"></path>
                        <path d="M5.8694,9.4336 C5.6964,9.2756 5.6094,9.0586 5.6094,8.7826 C5.6094,8.5416 5.6964,8.3366 5.8694,8.1666 C6.0424,7.9976 6.2514,7.9126 6.4964,7.9126 C6.7424,7.9126 6.9484,7.9986 7.1154,8.1696 C7.2834,8.3416 7.3664,8.5456 7.3664,8.7826 C7.3664,9.0626 7.2794,9.2806 7.1034,9.4366 C6.9284,9.5916 6.7204,9.6696 6.4794,9.6696 C6.2454,9.6696 6.0424,9.5906 5.8694,9.4336" id="Fill-146"></path>
                        <path d="M2.7439,7.0376 C2.8959,7.2556 2.9989,7.5166 3.0539,7.8196 C3.1079,8.1226 3.1389,8.5436 3.1469,9.0806 C3.1469,9.4426 3.1539,9.7176 3.1669,9.9066 C3.1809,10.0946 3.2099,10.2376 3.2549,10.3346 C3.2999,10.4326 3.3649,10.4986 3.4499,10.5336 C3.5359,10.5686 3.6659,10.5976 3.8409,10.6206 C3.9389,10.6326 4.0249,10.6676 4.1009,10.7256 C4.1769,10.7846 4.2379,10.8676 4.2849,10.9746 C4.3309,11.0806 4.3549,11.1996 4.3549,11.3276 C4.3549,11.5576 4.2819,11.7316 4.1359,11.8526 C3.9899,11.9736 3.7809,12.0336 3.5089,12.0336 C2.9559,12.0336 2.5139,11.8706 2.1809,11.5466 C1.8479,11.2216 1.6759,10.7906 1.6639,10.2536 C1.6529,9.6856 1.6419,9.2126 1.6319,8.8356 C1.6219,8.4576 1.5929,8.1746 1.5449,7.9856 C1.4959,7.7976 1.4109,7.6396 1.2879,7.5136 C1.1649,7.3866 0.9679,7.2396 0.6949,7.0726 C0.4729,6.9366 0.3629,6.7226 0.3629,6.4306 C0.3629,6.2246 0.4049,6.0706 0.4879,5.9696 C0.5719,5.8686 0.6989,5.7666 0.8699,5.6626 C1.0419,5.5596 1.1879,5.4416 1.3079,5.3076 C1.4289,5.1726 1.5199,4.9766 1.5819,4.7206 C1.6139,4.5926 1.6409,3.8816 1.6639,2.5906 C1.6679,2.2436 1.7489,1.9356 1.9069,1.6646 C2.0639,1.3946 2.2799,1.1866 2.5549,1.0406 C2.8279,0.8946 3.1469,0.8216 3.5089,0.8216 C4.0729,0.8216 4.3549,1.0536 4.3549,1.5166 C4.3549,1.7266 4.3059,1.8916 4.2059,2.0126 C4.1069,2.1326 3.9849,2.2036 3.8409,2.2226 C3.6699,2.2426 3.5429,2.2676 3.4589,2.3016 C3.3749,2.3346 3.3099,2.3956 3.2639,2.4846 C3.2169,2.5746 3.1859,2.7176 3.1699,2.9136 C3.1549,3.1106 3.1469,3.3936 3.1469,3.7636 C3.1469,4.1446 3.1289,4.4766 3.0939,4.7586 C3.0589,5.0406 2.9989,5.2846 2.9129,5.4906 C2.8269,5.6976 2.7189,5.8716 2.5859,6.0166 C2.4539,6.1606 2.2829,6.2986 2.0729,6.4306 C2.3689,6.6176 2.5919,6.8196 2.7439,7.0376" id="Fill-148"></path>
                    </g>
                </g>
                <g id="Group-16" transform="translate(275.000000, 245.000000)">
                    <path d="M6.115,0 L21.069,0 C24.446,0 27.184,2.738 27.184,6.115 L27.184,8.009 L29.617,9.636 C30.241,10.053 30.241,10.729 29.617,11.146 L27.184,12.773 L27.184,14.667 C27.184,18.044 24.446,20.782 21.069,20.782 L6.115,20.782 C2.738,20.782 0,18.044 0,14.667 L0,6.115 C0,2.738 2.738,0 6.115,0" id="Fill-151" fill="#3878FF"></path>
                    <g id="Group-159" transform="translate(6.000000, 6.000000)" fill="#FFFFFF">
                        <path d="M7.9182,6.2353 C7.9182,6.5073 7.8512,6.8023 7.7172,7.1193 C7.5832,7.4363 7.3712,7.7483 7.0842,8.0533 C6.7952,8.3593 6.4282,8.6073 5.9812,8.7973 C5.5332,8.9873 5.0112,9.0833 4.4162,9.0833 C3.9652,9.0833 3.5542,9.0403 3.1852,8.9553 C2.8152,8.8693 2.4802,8.7363 2.1782,8.5553 C1.8762,8.3743 1.5992,8.1353 1.3462,7.8403 C1.1212,7.5713 0.9282,7.2713 0.7682,6.9383 C0.6092,6.6063 0.4892,6.2513 0.4092,5.8733 C0.3302,5.4963 0.2902,5.0953 0.2902,4.6713 C0.2902,3.9823 0.3902,3.3653 0.5902,2.8203 C0.7912,2.2763 1.0782,1.8103 1.4512,1.4233 C1.8252,1.0353 2.2622,0.7413 2.7642,0.5383 C3.2662,0.3363 3.8012,0.2353 4.3702,0.2353 C5.0622,0.2353 5.6792,0.3733 6.2202,0.6493 C6.7602,0.9253 7.1752,1.2673 7.4632,1.6733 C7.7512,2.0803 7.8952,2.4643 7.8952,2.8263 C7.8952,3.0253 7.8252,3.2003 7.6852,3.3523 C7.5442,3.5043 7.3752,3.5793 7.1772,3.5793 C6.9552,3.5793 6.7892,3.5273 6.6782,3.4223 C6.5672,3.3173 6.4432,3.1363 6.3072,2.8793 C6.0822,2.4553 5.8162,2.1383 5.5102,1.9273 C5.2052,1.7173 4.8292,1.6123 4.3812,1.6123 C3.6692,1.6123 3.1022,1.8833 2.6802,2.4233 C2.2572,2.9643 2.0462,3.7333 2.0462,4.7293 C2.0462,5.3943 2.1402,5.9483 2.3272,6.3893 C2.5132,6.8313 2.7782,7.1613 3.1212,7.3793 C3.4632,7.5973 3.8632,7.7063 4.3232,7.7063 C4.8212,7.7063 5.2422,7.5823 5.5862,7.3353 C5.9312,7.0883 6.1902,6.7253 6.3652,6.2473 C6.4392,6.0213 6.5312,5.8373 6.6402,5.6953 C6.7492,5.5533 6.9242,5.4823 7.1652,5.4823 C7.3712,5.4823 7.5482,5.5543 7.6962,5.6983 C7.8442,5.8423 7.9182,6.0213 7.9182,6.2353" id="Fill-153"></path>
                        <path d="M10.4221,9.0835 C10.1811,9.0835 9.9731,9.0055 9.7971,8.8505 C9.6221,8.6945 9.5351,8.4765 9.5351,8.1965 C9.5351,7.9585 9.6181,7.7545 9.7861,7.5835 C9.9531,7.4125 10.1591,7.3265 10.4041,7.3265 C10.6501,7.3265 10.8591,7.4115 11.0321,7.5805 C11.2051,7.7505 11.2921,7.9555 11.2921,8.1965 C11.2921,8.4725 11.2051,8.6895 11.0321,8.8475 C10.8591,9.0045 10.6551,9.0835 10.4221,9.0835 M9.5351,3.4745 C9.5351,3.1985 9.6211,2.9845 9.7951,2.8325 C9.9671,2.6805 10.1771,2.6045 10.4221,2.6045 C10.6591,2.6045 10.8631,2.6815 11.0351,2.8355 C11.2061,2.9895 11.2921,3.2025 11.2921,3.4745 C11.2921,3.6925 11.1981,3.8935 11.0111,4.0755 C10.8251,4.2585 10.6221,4.3505 10.4041,4.3505 C10.1671,4.3505 9.9631,4.2625 9.7921,4.0875 C9.6201,3.9125 9.5351,3.7085 9.5351,3.4745" id="Fill-155"></path>
                        <path d="M15.3654,1.4199 L13.7314,8.1489 C13.6774,8.3719 13.6294,8.5459 13.5884,8.6749 C13.5474,8.8029 13.4854,8.9029 13.4014,8.9759 C13.3184,9.0469 13.1964,9.0839 13.0364,9.0839 C12.6394,9.0839 12.4414,8.9119 12.4414,8.5699 C12.4414,8.4809 12.4804,8.2569 12.5584,7.8989 L14.1864,1.1689 C14.2724,0.8109 14.3534,0.5659 14.4314,0.4339 C14.5094,0.3009 14.6614,0.2349 14.8864,0.2349 C15.0814,0.2349 15.2304,0.2819 15.3334,0.3759 C15.4364,0.4689 15.4884,0.5969 15.4884,0.7609 C15.4884,0.8809 15.4474,1.1009 15.3654,1.4199" id="Fill-157"></path>
                    </g>
                </g>
                <g id="Group-13" transform="translate(155.000000, 336.000000)">
                    <path d="M26.8800003,21.207 C26.8800003,24.341 24.3390003,26.882 21.2050003,26.882 L5.6740003,26.881 C2.5400003,26.881 -0.000999704942,24.34 2.95058106e-07,21.205 L2.95058106e-07,5.675 C2.95058106e-07,2.54 2.5410003,0 5.6750003,0 L21.2060003,0.001 C24.3400003,0.001 26.8810003,2.542 26.8800003,5.676 L26.8800003,21.207 Z" id="Fill-160" fill="#3878FF"></path>
                    <g id="Group-170" transform="translate(4.000000, 6.000000)" stroke="#FFFFFF" stroke-linecap="round" stroke-linejoin="round">
                        <polyline id="Stroke-162" points="6.5808 3.1904 5.2168 6.8184 0.9048 3.9274 3.7208 1.2814"></polyline>
                        <polygon id="Stroke-164" points="9.4406 3.1904 12.3006 3.1904 15.1606 1.2814 12.5216 0.1374 9.4406 0.1374 6.3606 0.1374 3.7206 1.2814 6.5806 3.1904"></polygon>
                        <polyline id="Stroke-166" points="12.301 3.1909 13.665 6.8179 17.977 3.9279 15.161 1.2819"></polyline>
                        <polyline id="Stroke-168" points="17.9768 3.9282 9.4398 15.3042 13.6648 6.8182 9.4408 6.8182 5.2168 6.8182 9.4398 15.3042 0.9048 3.9272"></polyline>
                    </g>
                </g>
                <g id="Group-18" transform="translate(656.000000, 244.000000)">
                    <path d="M27.10775,0 L10.19575,0 C6.37675,0 3.28075,3.096 3.28075,6.916 L3.28075,9.058 L0.52875,10.897 C-0.17625,11.369 -0.17625,12.134 0.52875,12.606 L3.28075,14.446 L3.28075,16.588 C3.28075,20.407 6.37675,23.503 10.19575,23.503 L27.10775,23.503 C30.92675,23.503 34.02375,20.407 34.02375,16.588 L34.02375,6.916 C34.02375,3.096 30.92675,0 27.10775,0" id="Fill-171" fill="#3878FF"></path>
                    <g id="Group-179" transform="translate(5.000000, 7.000000)" fill="#FFFFFF">
                        <polygon id="Fill-173" points="23.7649 5.3154 19.1379 3.5334 19.1379 1.6524 25.7789 4.5304 25.7789 6.1274 19.1379 9.0054 19.1379 7.1374"></polygon>
                        <path d="M11.5139,0.8667 C11.5139,0.6817 11.5729,0.5367 11.6889,0.4307 C11.8059,0.3247 11.9739,0.2727 12.1939,0.2727 C12.4499,0.2727 12.6209,0.3477 12.7089,0.4967 C12.7969,0.6467 12.8889,0.9237 12.9869,1.3287 L14.8269,8.9397 C14.9159,9.3447 14.9599,9.5967 14.9599,9.6987 C14.9599,10.0857 14.7359,10.2797 14.2859,10.2797 C14.1059,10.2797 13.9689,10.2387 13.8739,10.1577 C13.7799,10.0757 13.7089,9.9627 13.6619,9.8177 C13.6169,9.6717 13.5629,9.4737 13.5009,9.2227 L11.6529,1.6127 C11.5609,1.2517 11.5139,1.0027 11.5139,0.8667" id="Fill-175"></path>
                        <polygon id="Fill-177" points="0.7024 4.5434 7.3434 1.6784 7.3434 3.5334 2.7024 5.3284 7.3434 7.1504 7.3434 9.0184 0.7024 6.1274"></polygon>
                    </g>
                </g>
                <g id="Group-17" transform="translate(465.000000, 276.000000)" fill="#3878FF">
                    <path d="M23.4364123,6.22891232 C22.0454123,7.73391232 19.6984123,7.82691232 18.1924123,6.43591232 C16.6874123,5.04491232 16.5944123,2.69791232 17.9854123,1.19291232 C19.3764123,-0.313087679 21.7244123,-0.405087679 23.2284123,0.984912321 C24.7344123,2.37591232 24.8274123,4.72391232 23.4364123,6.22891232" id="Fill-180"></path>
                    <path d="M38.4360189,24.2284123 C37.0450189,25.7334123 34.6980189,25.8264123 33.1920189,24.4364123 C31.6870189,23.0454123 31.5950189,20.6974123 32.9850189,19.1924123 C34.3760189,17.6874123 36.7240189,17.5944123 38.2280189,18.9854123 C39.7340189,20.3754123 39.8270189,22.7234123 38.4360189,24.2284123" id="Fill-182"></path>
                    <path d="M4.31618018,10.1773255 C3.38318018,11.1863255 1.80918018,11.2493255 0.799180181,10.3163255 C-0.209819819,9.38332555 -0.271819819,7.80932555 0.661180181,6.79932555 C1.59318018,5.79032555 3.16818018,5.72832555 4.17718018,6.66032555 C5.18718018,7.59332555 5.24918018,9.16732555 4.31618018,10.1773255" id="Fill-184"></path>
                    <polygon id="Fill-186" points="33.436 18.938 23 6.726 23.849 6 34.285 18.212"></polygon>
                    <polygon id="Fill-188" points="4.294 8.705 4 7.627 17.281 4 17.575 5.078"></polygon>
                </g>
                <path d="M551.141976,240.979987 C550.712976,239.840987 551.288976,238.570987 552.427976,238.141987 C553.566976,237.712987 554.836976,238.288987 555.265976,239.426987 C555.694976,240.565987 555.118976,241.835987 553.979976,242.264987 C552.840976,242.693987 551.570976,242.118987 551.141976,240.979987" id="Fill-190" fill="#3878FF"></path>
                <path d="M538.142105,243.979987 C537.713105,242.840987 538.288105,241.570987 539.427105,241.141987 C540.566105,240.712987 541.836105,241.288987 542.265105,242.426987 C542.694105,243.565987 542.119105,244.835987 540.980105,245.264987 C539.841105,245.693987 538.571105,245.118987 538.142105,243.979987" id="Fill-192" fill="#3878FF"></path>
                <path d="M554.094886,229.998003 C553.807886,229.234003 554.193886,228.382003 554.956886,228.095003 C555.720886,227.808003 556.573886,228.193003 556.860886,228.957003 C557.148886,229.721003 556.761886,230.572003 555.997886,230.860003 C555.234886,231.147003 554.382886,230.762003 554.094886,229.998003" id="Fill-194" fill="#3878FF"></path>
                <polygon id="Fill-196" fill="#3878FF" points="542 243.287 551.259 241 551.418 241.643 542.159 243.932"></polygon>
                <g id="Group-14" transform="translate(119.000000, 379.000000)" fill="#3878FF">
                    <path d="M7.77449696,11.433074 C8.65449696,10.742074 9.92849696,10.894074 10.620497,11.774074 C11.312497,12.654074 11.159497,13.928074 10.279497,14.620074 C9.39949696,15.312074 8.12549696,15.159074 7.43349696,14.279074 C6.74149696,13.399074 6.89449696,12.125074 7.77449696,11.433074" id="Fill-200"></path>
                    <path d="M0.773880978,0.433496957 C1.65388098,-0.258503043 2.92788098,-0.105503043 3.61988098,0.774496957 C4.31188098,1.65449696 4.15988098,2.92849696 3.27888098,3.62049696 C2.39888098,4.31149696 1.12588098,4.15949696 0.433880978,3.27949696 C-0.258119022,2.39949696 -0.106119022,1.12549696 0.773880978,0.433496957" id="Fill-202"></path>
                    <path d="M18.5190923,10.290824 C19.1090923,9.82682403 19.9640923,9.92882403 20.4280923,10.519824 C20.8920923,11.108824 20.7900923,11.963824 20.1990923,12.427824 C19.6090923,12.891824 18.7550923,12.789824 18.2900923,12.199824 C17.8270923,11.608824 17.9290923,10.754824 18.5190923,10.290824" id="Fill-204"></path>
                    <polygon id="Fill-206" points="7.576 10.912 3 3.425 3.696 3 8.271 10.488"></polygon>
                    <polygon id="Fill-208" points="11.087 12.621 11 11.811 18.476 11 18.563 11.81"></polygon>
                </g>
                <path d="M626.564,642.782 C626.564,645.424 624.422,647.565 621.782,647.565 L601.782,647.565 C599.14,647.565 597,645.424 597,642.782 L597,622.783 C597,620.141 599.14,618 601.782,618 L621.782,618 C624.422,618 626.564,620.141 626.564,622.783 L626.564,642.782 Z" id="Fill-210" fill="#3878FF"></path>
                <path d="M649.088,650.294 C649.088,651.285 648.285,652.087 647.294,652.087 L639.794,652.087 C638.803,652.087 638,651.285 638,650.294 L638,642.794 C638,641.803 638.803,641 639.794,641 L647.294,641 C648.285,641 649.088,641.803 649.088,642.794 L649.088,650.294 Z" id="Fill-212" fill="#3878FF"></path>
                <path d="M98.54,316.673 C98.54,317.704 97.704,318.54 96.673,318.54 L88.867,318.54 C87.836,318.54 87,317.704 87,316.673 L87,308.867 C87,307.836 87.836,307 88.867,307 L96.673,307 C97.704,307 98.54,307.836 98.54,308.867 L98.54,316.673 Z" id="Fill-214" fill="#3878FF"></path>
                <path d="M503.305264,361.688 C501.892264,361.688 500.602264,362.209 499.610264,363.065 C499.707264,362.621 499.763264,362.162 499.763264,361.688 C499.763264,358.17 496.911264,355.32 493.395264,355.32 C492.249264,355.32 491.178264,355.626 490.249264,356.155 C490.369264,355.373 490.431264,354.571 490.431264,353.755 C490.431264,345.053 483.377264,338 474.676264,338 C466.519264,338 459.809264,344.199 459.002264,352.143 C458.108264,351.456 456.991264,351.042 455.776264,351.042 C452.847264,351.042 450.472264,353.417 450.472264,356.345 C450.472264,356.757 450.524264,357.157 450.613264,357.542 C449.814264,356.801 448.747264,356.345 447.572264,356.345 C445.098264,356.345 443.092264,358.351 443.092264,360.826 C443.092264,361.703 443.349264,362.519 443.784264,363.21 C443.159264,363.028 442.496264,362.927 441.811264,362.927 C438.201264,362.927 435.353264,366.165 438.093264,366.165 L507.246264,366.165 C509.299264,366.165 507.141264,361.688 503.305264,361.688" id="Fill-5" fill="#FFFFFF"></path>
            </g>
        </g>
    </g>
</svg>