<?xml version="1.0" encoding="UTF-8"?>
<svg width="47px" height="44px" viewBox="0 0 47 44" version="1.1" xmlns="http://www.w3.org/2000/svg" xmlns:xlink="http://www.w3.org/1999/xlink">
    <!-- Generator: Sketch 50 (54983) - http://www.bohemiancoding.com/sketch -->
    <title>Shape</title>
    <desc>Created with Sketch.</desc>
    <defs></defs>
    <g id="ðŸ”¥ä¼ä¸šå¼€æºè½¯ä»¶ç®¡ç†" stroke="none" stroke-width="1" fill="none" fill-rule="evenodd">
        <g id="å¼€æºè½¯ä»¶ç‰ˆæœ¬å˜æ›´ç”³è¯·" transform="translate(-418.000000, -271.000000)" fill="#5E9FFB" fill-rule="nonzero">
            <g id="Group-31" transform="translate(357.000000, 93.000000)">
                <g id="Group-18" transform="translate(0.000000, 77.000000)">
                    <g id="docker" transform="translate(44.000000, 84.000000)">
                        <g id="åŠŸèƒ½é¡µ-åŠ å…¥å¼€æºé¡¹ç›®" transform="translate(17.000000, 17.000000)">
                            <path d="M13.6535,44 L18.659,31.6931835 C15.557,30.0089888 13.4285714,26.7988015 13.4285714,23.071161 C13.4285714,17.6098876 17.9372143,13.1835206 23.5,13.1835206 C29.0627857,13.1835206 33.5714286,17.6098876 33.5714286,23.071161 C33.5714286,26.7955056 31.4497143,29.9991011 28.3510714,31.6865918 L33.3565714,43.9934082 C41.407,40.3316854 47,32.3523596 47,23.071161 C47,10.3292884 36.4787143,0 23.5,0 C10.5212857,0 0,10.3292884 0,23.071161 C0,32.3556554 5.59971429,40.341573 13.6535,44 Z" id="Shape"></path>
                        </g>
                    </g>
                </g>
            </g>
        </g>
    </g>
</svg>